<?xml version="1.0" standalone="no"?>
<<<<<<< HEAD
<!DOCTYPE svg PUBLIC "-//W3C//DTD SVG 1.1//EN" "http://www.w3.org/Graphics/SVG/1.1/DTD/svg11.dtd">
<svg xmlns="http://www.w3.org/2000/svg">
<metadata>Copyright (C) 2015 by original authors @ fontello.com</metadata>
<defs>
<font id="paylocityicons" horiz-adv-x="512" >
<font-face font-family="paylocityicons" font-weight="400" font-stretch="normal" units-per-em="512" ascent="480" descent="-32" />
<missing-glyph horiz-adv-x="512" />
<glyph glyph-name="glyph" unicode="&#xe600;" d="m209 330c0 25 21 45 46 45 25 0 45-20 45-45 0-25-20-46-45-46-25 0-46 21-46 46z m74-218c-11 0-20 6-20 17l27 111c2 7-3 14-11 14h-92v-11l19-5c9-1 13-9 11-17l-23-103c0-25 17-46 42-46 67 0 94 46 94 46v15c0 0-17-21-47-21z m154-69c-48-49-112-75-181-75-68 0-133 26-181 75-100 100-100 262 0 362 48 48 113 75 181 75 68 0 133-27 181-75 100-100 100-263 0-362z m-22 340c-42 42-99 66-159 66-60 0-117-24-159-66-88-88-88-230 0-318 43-43 99-66 159-66 60 0 117 23 159 66 88 87 88 230 0 318z" horiz-adv-x="512" />
<glyph glyph-name="glyph-1" unicode="&#xe601;" d="m407-32l-256 256 256 256 23-23-234-233 234-233z m-329 512h31v-510h-31v510z" horiz-adv-x="512" />
<glyph glyph-name="glyph-2" unicode="&#xe602;" d="m512 240h-240v240h-32v-240h-240v-32h240v-240h32v240h240z" horiz-adv-x="512" />
<glyph glyph-name="glyph-3" unicode="&#xe603;" d="m91 480l256-256-256-256-22 23 233 233-233 233z m298-2h31v-510h-31v510z" horiz-adv-x="512" />
<glyph glyph-name="glyph-4" unicode="&#xe604;" d="m437 405c-48 48-113 75-181 75s-133-27-181-75c-100-100-100-262 0-362 48-48 113-75 181-75 68 0 133 27 181 75 48 48 75 113 75 181 0 68-27 133-75 181z m-22-340c-43-42-99-66-159-66-60 0-116 24-159 66-88 88-88 230 0 318 42 42 99 66 159 66 60 0 116-24 159-66 42-43 66-99 66-159s-24-117-66-159z m-147 293h-31v-118h-118v-32h118v-118h31v118h118v32h-118z" horiz-adv-x="512" />
<glyph glyph-name="glyph-129" unicode="&#xe606;" d="m450 459c-7-2-15-3-24-4l-7-1c-15-2-34-5-53-5-28 0-54 6-81 12l-17 4c-33 7-70 15-109 15-74 0-102-16-110-20l-12-9v-483h33v206c16 4 48 10 89 8 22-1 43-6 66-12 10-3 20-5 32-8 35-7 71-15 111-15 20 0 38 2 53 4l9 1c10 2 19 3 26 4l14 2v304l-20-3z m-13-273c-3-1-7-1-10-2l-10-1c-14-2-31-4-49-4-37 0-71 8-105 15-10 2-20 5-30 7-23 6-47 12-73 14-6 0-11 0-17 0-31 0-56-4-73-8v227c6 3 31 14 89 14 36 0 69-7 102-14l17-4c28-6 57-13 88-13 21 0 42 3 58 5l6 1c3 0 5 1 7 1v-238z" horiz-adv-x="512" />
<glyph glyph-name="glyph-5" unicode="&#xe608;" d="m377 195c1-8 2-15 2-22 0-96-79-174-175-174s-174 78-174 174c0 96 78 174 174 174 8 0 15 0 22-1l-8 31c-4 0-9 0-14 0-112 0-204-91-204-204 0-113 92-204 204-204s205 91 205 204c0 5 0 9-1 14l-31 8z m-292-22c0-66 54-119 119-119s119 53 119 119c0 11-2 22-5 32l-25-26c0-2 0-4 0-6 0-49-40-89-89-89s-88 40-88 89c0 49 40 89 88 89 6 0 10-1 15-2l24 25c-12 4-25 7-39 7-65 0-119-53-119-119z m136 37c-5 2-11 3-17 3-22 0-40-18-40-40 0-22 18-40 40-40s41 18 41 40c0 5-2 10-3 15l55 55 104-26 111 111-104 27c5 5 5 14 0 20-6 6-15 6-21 0l-26 104-111-111 26-103-55-55z m170 41l-69 17 62 61 69-17-62-61z m-108 108l62 61 17-69-61-61-18 69z" horiz-adv-x="512" />
<glyph glyph-name="glyph-6" unicode="&#xe60a;" d="m211 233l43 74c3 6 1 13-4 16l-31 18c-5 3-13 1-16-5l-47-81-51-89-43-75c-3-6-1-13 4-16l31-18c5-3 13-1 16 5l59 104 39 67z m287 22h-102c12-23 23-44 31-59 5-10 9-19 11-22s3-6 4-9h56c6 0 11 5 11 11v68c0 6-5 11-11 11z m-250 0l-51-89h139c-10 20-23 48-41 89h-47z m-116 0h-118c-6 0-11-5-11-10v-69c0-6 5-10 11-10h66l52 89z m-45-211l-31 18c-5 3-10 0-11-6l-5-46c-1-6 3-9 8-5l39 27c6 3 5 9 0 12z m333 120c0 1-1 1-1 2v0c-3 5-10 18-19 36 0 0-1 0-1 1-1 1-1 3-2 4s-1 2-1 3c-1 1-1 2-2 3 0 1-1 3-2 5 0 0 0 1-1 1-1 2-2 4-3 6 0 0 0 1 0 1-22 41-49 91-66 117-29 46-68 123-78 117-16-7 32-104 47-141 15-37 76-177 88-183s17-3 25 1c8 3 23 14 16 27z m34-72l-14 28c-4 6-12 9-18 6l-17-10c-6-3-8-10-5-16l19-29c3-6 11-8 17-5l13 8c6 4 8 12 5 18z m-4-40c-5-4-16-14-3-32s43-20 47-32c0 0 9 94-44 64z" horiz-adv-x="512" />
<glyph glyph-name="glyph-7" unicode="&#xe60b;" d="m178 199c12 0 21 9 22 19h1c0 0 0 41 0 42 0 12-10 22-23 22s-22-10-22-22v-42h1c1-10 10-19 21-19z m156 0c11 0 20 9 21 19h1c0 0 0 41 0 42 0 12-10 22-22 22s-23-10-23-22v-42h1c1-10 10-19 22-19z m125 281h-406c-29 0-53-24-53-53v-406c0-29 24-53 53-53h406c29 0 53 24 53 53v406c0 29-24 53-53 53z m22-459c0-12-10-22-22-22h-406c-12 0-22 10-22 22v313h450v-313z m0 344h-450v62c0 12 10 22 22 22h406c12 0 22-10 22-22v-62z m-222-310c55 0 106 24 141 65 6 7 5 16-2 22-6 6-16 5-22-2-29-34-71-54-117-54-48 0-93 23-123 62-5 7-15 8-22 3-6-5-8-15-3-22 36-47 90-74 148-74z m-61 367h-111c-9 0-16-7-16-15s7-16 16-16h111c9 0 16 7 16 16s-7 15-16 15z" horiz-adv-x="512" />
<glyph glyph-name="glyph-8" unicode="&#xe60d;" d="m256 480c-141 0-256-115-256-256s115-256 256-256 256 115 256 256-115 256-256 256z m0-481c-124 0-225 101-225 225 0 124 101 225 225 225s225-101 225-225c0-124-101-225-225-225z m-23 151l-95 64-18-26 121-82 145 215-26 18z" horiz-adv-x="512" />
<glyph glyph-name="glyph-9" unicode="&#xe60f;" d="m232 356c6 5 13 7 23 7 9 0 16-2 22-7 5-5 8-11 8-18 0-3-1-7-1-13l-7-188h-39l-12 186c-1 6-1 9-1 10 0 11 2 18 7 23z m44-296c-6-6-13-9-21-9-9 0-16 3-22 9-6 6-9 13-9 21s3 16 9 22c6 6 13 9 22 9 8 0 15-3 21-9 6-6 9-13 9-22 0-8-3-15-9-21z m166-74h-371c-40 0-72 35-72 79 0 5 0 11 1 16l2 5 190 341c12 25 36 41 63 41 28 0 53-18 65-45l188-338c2-7 3-13 3-20 0-38-25-71-60-77l-9-2z m-411 87c-1-3-1-6-1-8 0-26 18-48 41-48l375 1c19 4 33 24 33 47 0 3 0 7-1 11l-186 333c-7 17-22 28-37 28-15 0-29-9-36-24l-188-340z" horiz-adv-x="512" />
<glyph glyph-name="glyph-10" unicode="&#xe611;" d="m430 441h-359l-71-156v-278h512v278l-82 156z m51-403h-450l0 240 60 132h320l70-132v-240z m-403 282h356l14-31h-385l15 31z m328 60l14-32h-328l14 32h300z m-85-184h31c0-56-32-58-35-58h-118c-11 0-20 4-27 12-14 16-12 42-11 47l31-3c-1-7 0-20 3-24 1 0 1-1 4-1h118c-1 1 4 8 4 27z" horiz-adv-x="512" />
<glyph glyph-name="glyph-11" unicode="&#xe613;" d="m323-32l-256 256 256 256 23-22-234-234 234-234z" horiz-adv-x="512" />
<glyph glyph-name="glyph-12" unicode="&#xe615;" d="m256-17l-212 221c-59 61-59 159 0 220 25 26 59 41 96 41s70-15 95-41l21-22 21 22c25 26 59 41 95 41 37 0 71-15 96-41 59-61 59-160 0-220l-212-221z m-116 451c-28 0-54-11-74-32-47-49-47-128 0-176l190-198 190 198c47 48 47 127 0 176-39 41-108 41-147 0l-43-45-43 45c-20 21-46 32-73 32z" horiz-adv-x="512" />
<glyph glyph-name="glyph-13" unicode="&#xe617;" d="m435 475h-358c-40 0-72-38-72-84v-334c0-46 32-83 72-83h358c39 0 71 37 71 83v334c1 46-32 84-71 84z m-99-32c15 0 27-14 27-31s-12-31-27-31c-14 0-26 14-26 31s12 31 26 31z m-160 0c14 0 26-14 26-31s-12-31-26-31c-15 0-27 14-27 31s12 31 27 31z m295-386c0-23-16-42-36-42h-358c-20 0-36 19-36 42v292h429v-292z m-318 197c-9-9-23-16-40-22v-47c11 4 21 8 29 13s16 10 24 17v-137h54v209h-49c-5-13-9-24-18-33z m229-53c-11 12-25 19-43 19-5 0-11-1-16-3-6-1-11-3-17-7l5 30h79v47h-118l-16-111 43-6c4 5 7 8 11 10 4 3 9 4 14 4 8 0 14-2 18-8 5-6 7-15 7-27s-2-21-7-27c-4-6-10-9-17-9-6 0-11 3-16 7s-7 12-8 22l-51-7c3-9 6-17 10-24s8-12 14-17c6-5 13-9 22-12 8-2 18-4 30-4 16 0 30 4 40 10s19 16 25 28c5 12 9 25 9 38-1 18-6 34-18 47z" horiz-adv-x="512" />
<glyph glyph-name="glyph-14" unicode="&#xe618;" d="m255 480c-141 0-256-115-256-256s115-256 256-256 256 115 256 256-115 256-256 256z m0-481c-124 0-225 101-225 225 0 124 101 225 225 225s224-101 224-225c0-124-100-225-224-225z m-127 241h242v-32h-242v32z" horiz-adv-x="512" />
<glyph glyph-name="glyph-15" unicode="&#xe61a;" d="m32 480h-32v-512h512v32h-480z m200-236l72-74 140 143 42-42 26 139-136-27 46-47-118-120-72 73-153-155 23-22z" horiz-adv-x="512" />
<glyph glyph-name="glyph-16" unicode="&#xe61c;" d="m68 244h140v-31h-140v31z m404 106l36 62 0 5c-1 3-5 30-41 50-15 9-30 13-44 13-12 0-19-3-20-4l-5-2-70-123-279 0c-26 0-45-26-45-50v-293c0-22 20-40 45-40h413c25 0 46 20 46 45v292c0 22-15 40-36 45z m-53 99c6 1 17 1 33-8 15-9 21-19 24-24l-148-261-63-44 6 77 148 260z m58-436c0-8-7-14-15-14h-413c-8 0-14 5-14 9v293c0 9 7 19 14 19l261 0-68-119-2-26h-182v-31h178l-6-38h-172v-31h168l-5-26c0-2 1-5 3-6 2-1 5-1 6 1l40 31h183v31h-144l39 27 6 11h99v31h-81l83 145 7 0c8 0 15-7 15-14v-293z" horiz-adv-x="512" />
<glyph glyph-name="glyph-17" unicode="&#xe61e;" d="m377-32h-377l131 253-131 259h378l134-253v-12l-3-6-132-241z m-295 50h266l111 203-111 209h-267l103-203v-12l-3-6-99-191z" horiz-adv-x="512" />
<glyph glyph-name="glyph-18" unicode="&#xe620;" d="m257-27c-139 0-251 113-251 251s112 251 251 251c138 0 251-113 251-251s-113-251-251-251z m0 451c-111 0-200-90-200-200 0-110 89-200 200-200s200 90 200 200c-1 110-90 200-200 200z m146-263h-197v198h52v-147h145z" horiz-adv-x="512" />
<glyph glyph-name="glyph-99" unicode="&#xe621;" d="m490 81l-234 234-234-234-22 23 256 256 256-256z" horiz-adv-x="512" />
<glyph glyph-name="glyph-100" unicode="&#xe623;" d="m384 291h58v-58h-58v58z m0-186h58v-58h-58v58z m0 93h58v-58h-58v58z m-301 193h58v-58h-58v58z m119 0h57v-58h-57v58z m-119-94h58v-58h-58v58z m119 0h57v-58h-57v58z m-119-94h58v-58h-58v58z m119 0h57v-58h-57v58z m258 160h-95c-7 0-14-1-21-4v69c0 29-23 52-51 52h-241c-29 0-52-23-52-52v-460h132v95h81v-95h299v344c0 28-23 51-52 51z m-147-364h-69v95h-143v-95h-70v429c0 12 9 21 21 21h241c11 0 20-9 20-21v-429z m168 0h-137v313c0 11 10 20 21 20h95c12 0 21-9 21-20v-313z" horiz-adv-x="512" />
<glyph glyph-name="glyph-101" unicode="&#xe625;" d="m346 185c2-6-1 6 0 0v0z m-6 15c-2 5-6 9-11 13-16 15-37 24-58 32-16 6-44 14-51 32-21 53 73 40 95 18 2-1 4-2 6-1 2 0 3 1 4 3l16 29c2 3 2 5-1 8-16 16-40 25-62 27v35c0 2-1 4-2 5-1 1-3 2-5 2h-27c-4-1-6-3-6-7v-36c-21-4-38-13-51-26-16-17-23-41-18-64 1-5 3-10 4-13 21-48 82-43 116-74 13-12 12-33-3-43-12-9-28-10-43-7-17 3-33 11-48 25l-1 0c-1 2-3 2-5 2-2 0-3-1-4-3l-21-26c-2-3-1-6 1-9 17-20 47-32 73-35v-35c0-2 0-3 2-5s2-2 4-2h27c2 0 4 1 5 2s2 3 2 5v35c39 6 71 38 71 79 0 7-1 13-3 19-1 6-4 11-6 15z m97 205c-48 48-113 75-181 75-69 0-133-27-181-75-100-100-100-262 0-362 48-48 113-75 181-75 68 0 133 27 181 75 48 48 75 113 75 181s-27 133-75 181z m-22-340c-42-42-99-66-159-66-60 0-117 24-159 66-88 88-88 230 0 318 42 42 99 66 159 66 60 0 116-24 159-66 42-42 66-99 66-159 0-60-24-117-66-159z" horiz-adv-x="512" />
<glyph glyph-name="glyph-102" unicode="&#xe627;" d="m493 218c12 11 19 26 19 43 0 32-26 59-59 59h-111c0 2 1 3 1 5 3 27 7 57-2 92-9 34-40 63-68 63-9 0-17-3-23-9-10-10-10-23-10-41l1-13c0-46-19-98-46-125-5-5-13-9-23-11v19h-172v-332h171v40c12-1 26-3 39-4 14-2 28-3 40-4 13-1 26-1 39-1 0 0 0 0 0 0 54 0 101 6 123 11 29 7 56 18 56 54 0 5 0 10-2 15 13 11 21 26 21 44 0 6-1 12-3 18 13 10 21 26 21 43 0 13-5 24-12 34z m-354-219h-108v269h108v-269z m323 236l-37-12 35-17c8-4 13-13 13-22 0-10-6-19-15-23l-19-7 12-17c3-4 5-9 5-14 0-10-6-19-15-23l-18-7 10-16c3-4 4-8 4-13 0-9 0-16-32-23-26-6-87-14-153-10-12 1-25 2-38 4-15 2-30 3-44 4v211c21 3 37 9 47 20 33 34 55 93 55 147l0 14c-1 7-1 16 1 18 11 0 32-17 38-40 8-29 4-55 1-80-1-8-2-16-3-24l-1-16h145c15 0 28-13 28-28 0-12-8-23-19-26z" horiz-adv-x="512" />
<glyph glyph-name="glyph-103" unicode="&#xe629;" d="m480 325l-158 155h-198v-81h-85v-431h372v81h69v276z m-149 102l95-93h-95v93z m49-428h-310v369h54v-319h256v-50z m69 81h-294v369h145v-147h149v-222z" horiz-adv-x="512" />
<glyph glyph-name="glyph-19" unicode="&#xe62b;" d="m512 458l-22 22-234-234-234 234-22-22 234-234-234-234 22-22 234 234 234-234 22 22-234 234z" horiz-adv-x="512" />
<glyph glyph-name="glyph-20" unicode="&#xe62d;" d="m257 480c-141 0-256-115-256-256s115-256 256-256 256 115 256 256-115 256-256 256z m0-481c-124 0-224 101-224 225s100 225 224 225 225-101 225-225-101-225-225-225z m81 328l-83-83-84 83-22-22 84-83-84-84 22-22 84 84 83-84 22 22-83 84 83 83z" horiz-adv-x="512" />
<glyph glyph-name="glyph-21" unicode="&#xe62f;" d="m426 377c47-47 70-103 70-169s-23-122-70-169-104-71-170-71c-66 0-122 24-170 71s-70 103-70 169c0 54 16 102 49 145 33 43 74 71 125 86v1c-9 2-14 7-15 14-1 5 0 10 5 16 4 4 10 8 17 9 3 1 5 1 8 1 13 0 21-5 23-15 2-7-1-13-8-18 0-1 0-1 1-2 11 2 23 3 35 3 66 0 123-24 170-71z m12-169c0 8-1 16-2 24l-40 6 35 21c-9 30-24 56-46 78-36 35-79 53-129 53-8 0-16-1-24-2l-6-40-21 35c-30-9-56-24-78-46-35-36-53-79-53-129 0-8 1-16 2-24l40-6-35-21c9-30 24-56 46-78 36-35 79-53 129-53 8 0 16 1 24 2l6 40 21-35c30 9 56 24 78 46 35 36 53 79 53 129z m-132 26v-1l60-2-54-25c0-7-2-15-5-22l23-24-32 11c-5-5-10-10-17-13l-2-60-25 54c-9 1-17 3-24 6l-98-74 74 98v1l-60 2 54 25c0 7 2 15 5 22l-23 24 32-11c5 5 10 10 17 13l2 60 25-54c9-1 17-3 24-6l98 74-74-98z m-114 214c3 4 6 7 10 7 5 1 9 1 13-2 5 3 7 7 6 11-1 5-7 8-16 8-2 0-4 0-6-1-5-1-10-3-13-6s-5-6-4-9c1-4 5-7 10-8z m24-214c-7-11-10-23-7-36 1-3 2-6 3-9l27 36 36 27c-4 2-8 3-13 4-2 0-4 0-6 0-3 0-7 0-10-1-13-3-23-10-30-21z m84-45c4 9 5 19 3 29-1 3-2 6-3 9l-27-36-36-27c4-2 8-3 13-4 2 0 4 0 6 0 3 0 7 0 10 1 5 1 10 3 15 6 9 5 15 13 19 22z" horiz-adv-x="512" />
<glyph glyph-name="glyph-22" unicode="&#xe630;" d="m321 190c-7 2-27 8-27 8-11 2-18 7-18 18v1c0 3 0 6 0 9 6 8 10 18 14 29 10 7 16 15 16 24 0 4-2 9-4 13v18c0 31-25 56-56 56-31 0-55-25-55-56v-18c-3-4-5-9-5-13 0-9 6-17 16-24 5-11 9-21 14-29 0-3 0-6 0-9v-1c0-11-7-16-18-18 0 0-20-6-27-8-21-4-36-25-36-47h222c0 22-15 43-36 47z m167-222h-397c-37 0-67 30-67 67v380c0 37 30 67 67 67h343v-86h54v-428z m-397 483c-20 0-36-17-36-36v-380c0-19 16-36 36-36h366v366h-23v-340h-332c-8 0-15 7-15 16s7 15 15 15h301v395h-312z" horiz-adv-x="512" />
<glyph glyph-name="glyph-23" unicode="&#xe632;" d="m275 480h-225v-512h412v327l-187 185z m9-53l125-123h-125v123z m-203-428v450h172v-176h178v-274h-350z" horiz-adv-x="512" />
<glyph glyph-name="glyph-24" unicode="&#xe634;" d="m480 152v-152h-448v152h-32v-185h512v185z m-224-88l83 123h-67v276h-32v-276h-67z" horiz-adv-x="512" />
<glyph glyph-name="glyph-25" unicode="&#xe636;" d="m8 480h71v-70h-71v70z m142 0h70v-70h-70v70z m142 0h70v-70h-70v70z m141 0h71v-70h-71v70z m-425-147h71v-71h-71v71z m142 0h70v-71h-70v71z m142 0h70v-71h-70v71z m141 0h71v-71h-71v71z m-425-147h71v-71h-71v71z m142 0h70v-71h-70v71z m142 0h70v-71h-70v71z m141 0h71v-71h-71v71z m-425-148h71v-70h-71v70z m142 0h70v-70h-70v70z m142 0h70v-70h-70v70z m141 0h71v-70h-71v70z" horiz-adv-x="512" />
<glyph glyph-name="glyph-26" unicode="&#xe638;" d="m479 434c-31 32-61 36-72 36l-10-1-307-299-89-188c-2-3-1-6 1-9 2-2 6-3 9-1l187 78 0 0 313 302 0 5c1 4 6 39-32 77z m-295-356l-111-38 41 110 297 288c8-1 25-5 45-26 20-20 24-38 24-46l-296-288z" horiz-adv-x="512" />
<glyph glyph-name="glyph-27" unicode="&#xe63a;" d="m256 74l-256 256 22 23 234-234 234 234 22-23z" horiz-adv-x="512" />
<glyph glyph-name="glyph-28" unicode="&#xe63c;" d="m0 480v-512h182v32h-150v448h448v-448h-151v-32h183v512z m339-219l-83 122-83-122h67v-291h32v291z" horiz-adv-x="512" />
<glyph glyph-name="glyph-29" unicode="&#xe63e;" d="m398-29l-124 110h-185c-49 0-89 41-89 91v214c0 50 40 91 89 91h334c49 0 89-41 89-91v-214c0-50-40-91-89-91h-25v-110z m-309 475c-32 0-58-27-58-60v-214c0-33 26-60 58-60h197l81-72v72h56c32 0 58 27 58 60v214c0 33-26 60-58 60h-334z" horiz-adv-x="512" />
<glyph glyph-name="glyph-30" unicode="&#xe640;" d="m0 463l198-283v-207h116v207l198 283h-512z m283-273v-186h-54v186l-170 242h394l-170-242z" horiz-adv-x="512" />
<glyph glyph-name="glyph-31" unicode="&#xe642;" d="m147-32l-23 22 234 234-234 234 23 22 256-256z" horiz-adv-x="512" />
<glyph glyph-name="glyph-32" unicode="&#xe644;" d="m307 249l63 63-257 156c-9 3-14 6-22 6-3 0-5-1-8-1l224-224z m95-94l41 25c15 9 22 24 25 42v4c-3 18-10 33-25 42l-40 24-70-69 69-68z m-95 41l-222-221c2-1 4-1 6-1 8 0 13 2 22 6l255 155-61 61z m-255 255c-5-7-8-17-8-26v0-402c0-10 4-20 9-28l227 228-228 228z" horiz-adv-x="512" />
<glyph glyph-name="glyph-33" unicode="&#xe645;" d="m377 54c-11 57-56 67-102 87l-3 1c-17 3-18 11-17 26 8 12 14 27 20 44 25 17 39 47 23 75v26c0 59-50 107-108 107s-108-48-108-107v-26c-16-28-2-58 22-75 7-17 13-32 21-44 0-17-2-24-20-27-47-19-92-30-103-87l-2-85h379l-2 85z m-346-54l0 38c1 22 14 44 33 55 7 4 43 20 49 18 34 6 45 31 43 63l0 4-3 4c-8 11-14 27-21 46l-2 5-5 2c-13 9-25 23-15 38l3 4v36c0 98 153 98 153 0v-36l3-4c11-15-2-29-15-38l-4-2-2-5c-7-19-13-35-21-46l-3-4 0-4c-2-32 7-56 41-63 37-15 81-23 82-73l1-38h-317z m370 164c7 11 12 23 16 35 21 15 32 41 19 64v21c0 62-59 96-115 91l6-32c38 4 78-15 78-59v-30l3-4c8-11-2-21-12-27l-4-3-2-5c-5-13-11-27-17-37l-3-4 0-4c-2-27 7-49 36-54 14-5 35-6 47-16 17-14 28-41 28-62v-38h-69v-31h100v69c0 35-24 89-62 98-9 2-50 5-49 28z" horiz-adv-x="512" />
<glyph glyph-name="glyph-104" unicode="&#xe647;" d="m247 144c-11 0-19-2-25-8-6-5-9-13-9-24 0-11 3-19 9-24 6-6 14-9 25-9 10 0 19 3 25 9 5 6 8 14 8 24 0 10-3 18-8 24-6 6-14 8-25 8z m11 225c-32 0-62-8-90-24l20-42c25 12 47 19 66 19 11 0 20-3 26-7 6-4 9-11 9-19 0-7-2-14-6-20-5-6-14-14-27-23-14-11-24-20-29-29-5-9-8-20-8-32v-15h51v12c0 8 2 14 5 19 3 4 11 11 23 20 18 13 30 25 37 35 6 10 9 22 9 36 0 21-7 38-23 51-15 12-36 19-63 19z m179 36c-48 48-113 75-181 75-68 0-133-27-181-75-48-48-75-113-75-181 0-68 27-133 75-181 48-48 113-75 181-75 68 0 133 27 181 75 48 48 75 113 75 181 0 68-27 133-75 181z m-22-340c-42-42-99-66-159-66-60 0-116 24-159 66-42 43-66 99-66 159 0 60 24 117 66 159 42 42 99 66 159 66 60 0 116-24 159-66 42-43 66-99 66-159 0-60-24-116-66-159z" horiz-adv-x="512" />
<glyph glyph-name="glyph-105" unicode="&#xe649;" d="m286 192c8 8 90 123 105 141l-1 1c-14-11-135-94-144-102-11-11-11-29 0-40 11-11 29-11 40 0z m1 257c-114 0-209-86-223-196h-64l78-116 78 116h-60c14 93 94 164 191 164 107 0 193-86 193-193s-86-193-193-193c-47 0-93 17-128 48l-21-24c41-36 94-56 149-56 124 0 225 101 225 225s-101 225-225 225z" horiz-adv-x="512" />
<glyph glyph-name="glyph-106" unicode="&#xe64b;" d="m439-32h-143v157h-80v-157h-143v196h-73l256 315 256-315h-73v-196z m-112 31h81v197h39l-191 234-190-234h38v-197h81v157h142v-157z" horiz-adv-x="512" />
<glyph glyph-name="glyph-107" unicode="&#xe64d;" d="m330 480v-32h150v-448h-448v448h151v32h-183v-512h512v512z m-157-293l83-122 83 122h-67v291h-32v-291z" horiz-adv-x="512" />
<glyph glyph-name="glyph-108" unicode="&#xe64f;" d="m255-32c-69 0-133 27-181 75s-75 113-75 181c0 68 26 133 75 181 48 48 112 75 181 75s132-27 181-75c100-100 100-262 0-362-49-48-113-75-181-75z m0 481c-60 0-117-24-159-66-43-42-66-99-66-159 0-60 23-116 66-159 42-42 99-66 159-66 60 0 116 24 159 66 87 88 87 230 0 318-43 42-99 66-159 66z m-23-72c5 5 13 7 23 7 9 0 17-2 22-7 6-5 9-11 9-19 0-2-1-7-2-13l-7-193h-40l-12 192c-1 5-1 8-1 10 0 10 2 18 8 23z m45-304c-6-6-14-9-22-9-9 0-16 3-22 9-7 6-10 13-10 22s3 16 9 22c7 6 14 9 23 9 8 0 16-3 22-9 6-6 9-13 9-22 0-9-3-16-9-22z" horiz-adv-x="512" />
<glyph glyph-name="glyph-34" unicode="&#xe651;" d="m97-32l28 185-124 130 173 29 82 168 82-168 173-29-124-130 28-185-159 85-159-85z m159 118l121-65-21 141 96 101-134 23-62 127-62-127-134-23 96-101-21-141 121 65z" horiz-adv-x="512" />
<glyph glyph-name="glyph-35" unicode="&#xe653;" d="m178 451h334v-33h-334v33z m0-194h334v-33h-334v33z m0-194h334v-34h-334v34z m-178 388h100v-33h-100v33z m0-194h100v-33h-100v33z m0-194h100v-34h-100v34z" horiz-adv-x="512" />
<glyph glyph-name="glyph-36" unicode="&#xe655;" d="m373 272v91c0 64-52 117-117 117s-117-53-117-117v-91h-80v-304h394v304h-80z m-203 91c0 47 39 86 86 86s86-39 86-86v-91h-172v91z m252-364h-332v241h332v-241z" horiz-adv-x="512" />
<glyph glyph-name="glyph-37" unicode="&#xe657;" d="m385 288h-258v32h258v-32z m0-48h-258v-32h258v32z m0-80h-258v-32h258v32z m77 320v-512h-412v512h412z m-31-31h-350v-450h350v450z" horiz-adv-x="512" />
<glyph glyph-name="glyph-38" unicode="&#xe659;" d="m429 375c-27 27-59 46-95 58l-10-30c31-11 59-28 83-51 39-39 60-91 60-146s-21-107-60-146c-81-80-212-80-292 0-81 81-81 212 0 292 23 24 51 41 83 51l-10 30c-36-11-69-32-96-58-93-93-93-244 0-337 47-47 108-70 169-70 61 0 122 23 168 70 45 45 70 104 70 168s-25 124-70 169z m-184 105h32v-256h-32v256z" horiz-adv-x="512" />
<glyph glyph-name="glyph-39" unicode="&#xe65b;" d="m0 439h512v-33h-512v33z m0-194h512v-33h-512v33z m0-194h512v-34h-512v34z" horiz-adv-x="512" />
<glyph glyph-name="glyph-40" unicode="&#xe65d;" d="m457 429h-402c-30 0-55-24-55-54v-302c0-30 25-54 55-54h402c30 0 55 24 55 54v302c0 30-25 54-55 54z m-402-32h402c13 0 23-10 23-22v-128h-134l-17-69-58 204-71-171-41 112-38-89h-89v141c0 12 10 22 23 22z m402-346h-402c-13 0-23 10-23 22v129h110l14 34 42-113 67 163 67-232 39 161h109v-142c0-12-10-22-23-22z" horiz-adv-x="512" />
<glyph glyph-name="glyph-41" unicode="&#xe65f;" d="m65 285c-36 0-65-29-65-65s29-65 65-65 66 29 66 65-30 65-66 65z m0-99c-19 0-34 15-34 34 0 19 15 34 34 34 19 0 34-15 34-34 0-19-15-34-34-34z m191 99c-36 0-65-29-65-65s29-65 65-65 65 29 65 65-29 65-65 65z m0-99c-19 0-34 15-34 34 0 19 15 34 34 34s34-15 34-34c0-19-15-34-34-34z m191 99c-36 0-66-29-66-65s30-65 66-65 65 29 65 65-29 65-65 65z m0-99c-19 0-34 15-34 34 0 19 15 34 34 34 19 0 34-15 34-34 0-19-15-34-34-34z" horiz-adv-x="512" />
<glyph glyph-name="glyph-42" unicode="&#xe661;" d="m433 461h-285c-43 0-79-36-79-79v-57c-39-5-69-38-69-78v-181c0-71 45-79 79-79h354c44 0 79 36 79 79v316c0 43-35 79-79 79z m-364-395c1-9-2-31-11-38-3-3-9-3-16-1-7 7-11 19-11 39v181c0 23 17 42 38 46v-227z m412 0c0-26-22-48-48-48h-343c11 20 11 45 11 48v316c0 26 21 48 47 48h285c26 0 48-22 48-48v-316z m-343 269h309v-31h-309v31z m0-71h309v-32h-309v32z m0-72h309v-31h-309v31z m0-72h309v-31h-309v31z" horiz-adv-x="512" />
<glyph glyph-name="glyph-43" unicode="&#xe663;" d="m437 405c-48 48-113 75-181 75-68 0-133-27-181-75-100-100-100-262 0-362 48-48 113-75 181-75 68 0 133 27 181 75s75 113 75 181c0 68-27 133-75 181z m-340-22c43 42 99 66 159 66 55 0 107-20 147-56l-316-316c-77 88-74 222 10 306z m318-318c-43-42-99-66-159-66-55 0-107 20-147 55l316 317c36-41 56-92 56-147 0-60-24-116-66-159z" horiz-adv-x="512" />
<glyph glyph-name="glyph-44" unicode="&#xe665;" d="m256-29c-46 0-83 31-90 72l-118 0c-15 4-42 17-46 45l-2 11 9 5c78 43 105 202 105 204 6 33 15 108 81 128 2 8 6 18 15 28 11 10 25 16 44 16 22 0 37-6 47-16 9-10 13-20 15-28 66-20 63-44 81-131v0c0 0 22-152 105-201l9-5-2-11c-4-28-31-41-46-45l-3 0h-115c-6-41-44-72-89-72z m-203 103h145l-1-16c0-32 26-56 59-56 32 0 59 24 59 53l-1 17 16 2h128c3 1 12 4 17 10-87 63-108 213-109 219-9 41 1 92-68 105l-12 3 0 12c0 10-3 26-29 26l-4 0c-25 0-28-16-28-23l-1-16-11-2c-69-13-61-77-68-102-1-10-28-164-109-222 5-6 14-9 17-10z" horiz-adv-x="512" />
<glyph glyph-name="glyph-45" unicode="&#xe667;" d="m512 295c0 47-38 84-85 84h-54v32c0 36-30 66-66 66h-102c-36 0-66-30-66-66v-32h-54c-47 0-85-37-85-84v-240c0-46 38-84 85-84h342c47 0 85 38 85 84v240z m-341 115c0 20 15 35 34 35h102c19 0 34-15 34-34v-32h-170v31z m-139-115c0 29 24 52 53 52h342c29 0 53-23 53-52v-72c-18-12-44-22-75-30-34-8-73-14-114-16l-5 0c-5 14-17 23-30 23-14 0-25-9-30-23l-4 0c-59 3-113 13-153 28-14 5-27 11-37 18v72z m448-240c0-29-24-52-53-52h-342c-29 0-53 23-53 52v131c8-4 16-8 25-11 44-16 102-27 164-30l5 0c5-14 17-23 30-23 14 0 25 9 30 23l6 0c43 2 85 8 121 17 26 7 48 15 67 24v-131z" horiz-adv-x="512" />
<glyph glyph-name="glyph-46" unicode="&#xe669;" d="m198 432h98v-33h-98v33z m0-192h98v-32h-98v32z m0-191h98v-33h-98v33z" horiz-adv-x="512" />
<glyph glyph-name="glyph-47" unicode="&#xe66b;" d="m256 480c-141 0-256-115-256-256s115-256 256-256 256 115 256 256-115 256-256 256z m0-31c119 0 216-93 224-209h-448c8 116 105 209 224 209z m0-450c-119 0-216 93-224 209h448c-8-116-105-209-224-209z" horiz-adv-x="512" />
<glyph glyph-name="glyph-48" unicode="&#xe66d;" d="m414 412v-31c9 0 20-8 20-15l-1-352c0-8-6-15-14-15h-326c-8 0-15 7-15 15v352c0 7 11 15 18 15v31c-22 0-49-20-49-46v-352c0-25 20-46 46-46h326c25 0 46 21 46 46l0 352c0 26-27 46-51 46z m-259-70h202c19 0 34 15 34 34v35h-17c-19 0-63 16-69 34-7 20-26 35-49 35s-42-15-49-35c-6-18-50-34-69-34h-17v-35c0-19 15-34 34-34z m101 112c12 0 22-10 22-22s-10-21-22-21-22 10-22 21c0 12 10 22 22 22z" horiz-adv-x="512" />
<glyph glyph-name="glyph-109" unicode="&#xe66f;" d="m256 480c-141 0-256-115-256-256s115-256 256-256 256 115 256 256-115 256-256 256z m0-481c-124 0-225 101-225 225s101 225 225 225 225-101 225-225c0-124-101-225-225-225z m-11 369h-31v-200h198v31h-167z" horiz-adv-x="512" />
<glyph glyph-name="glyph-110" unicode="&#xe671;" d="m472 350h-432c-22 0-40-18-40-40v-194c0-22 18-40 40-40h49v-46c0-23 18-41 40-41h246c22 0 40 18 40 41v46h57c22 0 40 18 40 40v194c0 22-18 40-40 40z m-88-320c0-5-4-10-9-10h-246c-5 0-9 5-9 10v129h264v-129z m97 86c0-5-4-9-9-9h-57v83h-326v-83h-49c-5 0-9 4-9 9v194c0 5 4 9 9 9h432c5 0 9-4 9-9 0 0 0-194 0-194z m-377 331h302v-63h-302v63z" horiz-adv-x="512" />
<glyph glyph-name="glyph-111" unicode="&#xe673;" d="m512-32h-512v16c0 55 39 105 91 117 14 3 57 15 57 15 28 6 28 19 28 25 0 6 0 11 0 16-11 17-19 36-28 59-24 17-37 38-37 61 0 11 3 22 9 33v35c0 74 61 135 136 135s136-61 136-135v-35c6-11 9-22 9-33 0-23-13-44-37-61-9-23-17-43-28-59 0-5 0-9 0-14 0-8 0-21 26-26 2-1 45-13 59-16 52-12 91-62 91-117v-16z m-479 31h446c-6 35-32 64-65 72-15 3-59 15-59 15-44 9-51 38-51 55 0 9 0 16 1 22l0 4 3 4c10 15 19 36 28 61l2 5 5 3c10 6 27 19 27 37 0 6-2 13-7 19l-2 4v45c0 57-47 104-105 104s-105-47-105-104v-45l-2-4c-5-6-7-12-7-19 0-18 17-31 27-37l5-3 2-5c9-25 17-46 28-61l3-4 0-4c0-7 1-13 1-20 0-19-7-48-53-57 0 0-42-12-57-15-33-8-59-37-65-72z" horiz-adv-x="512" />
<glyph glyph-name="glyph-112" unicode="&#xe675;" d="m454 439h-162c2 11 10 21 22 25l13 4v12h-142v-12l13-4c12-4 20-14 22-25h-162c-29 0-53-24-53-53v-366c0-29 24-52 53-52h396c29 0 53 23 53 52v366c0 29-24 53-53 53z m21-419c0-11-10-20-21-20h-396c-11 0-21 9-21 20v366c0 12 10 21 21 21h396c11 0 21-9 21-21v-366z m-219 347c-90 0-164-73-164-164s74-164 164-164c90 0 164 74 164 164s-74 164-164 164z m0-295c-73 0-132 59-132 131 0 73 59 132 132 132 73 0 132-59 132-132 0-72-59-131-132-131z m9 131h-98v-32h130v128h-32z" horiz-adv-x="512" />
<glyph glyph-name="glyph-113" unicode="&#xe677;" d="m437 405c-48 48-113 75-181 75-68 0-133-27-181-75-100-100-100-262 0-362 48-48 113-75 181-75 69 0 133 27 181 75 100 100 100 262 0 362z m-22-340c-42-42-99-66-159-66-60 0-116 24-159 66-88 88-88 230 0 318 42 42 99 66 159 66 60 0 116-24 159-66 88-88 88-230 0-318z m-13 159c0-81-65-146-146-146s-146 65-146 146c0 81 65 146 146 146s146-65 146-146z" horiz-adv-x="512" />
<glyph glyph-name="glyph-49" unicode="&#xe678;" d="m256-32c-68 0-133 27-181 75-100 100-100 262 0 362 48 48 113 75 181 75s133-27 181-75c100-100 100-262 0-362-48-48-113-75-181-75z m0 481c-60 0-117-24-159-66-88-88-88-230 0-318 43-42 99-66 159-66 60 0 117 24 159 66 88 88 88 230 0 318-43 42-99 66-159 66z" horiz-adv-x="512" />
<glyph glyph-name="glyph-50" unicode="&#xe67b;" d="m437 405c-48 48-113 75-181 75-68 0-133-27-181-75-48-48-75-113-75-181 0-68 27-133 75-181 48-48 113-75 181-75 69 0 133 27 181 75 48 48 75 113 75 181 0 68-27 133-75 181z m31-106h-156l-48 149c57-1 110-24 151-65 24-24 42-53 53-84z m-124-199l-88 64-88-64 34 104-88 63h108l34 104 34-104h108l-88-63 34-104z m-247 283c41 41 94 64 151 65l-48-149h-156c11 31 29 60 53 84z m-66-159c0 20 3 40 8 59l126-91-47-145c-7 6-14 12-21 18-42 43-66 99-66 159z m102-188l123 90 123-90c-36-24-78-37-123-37-44 0-87 13-123 37z m282 29c-7-7-14-13-21-18l-47 145 126 91c5-19 8-39 8-59 0-60-24-117-66-159z" horiz-adv-x="512" />
<glyph glyph-name="glyph-51" unicode="&#xe67d;" d="m449 193c0-107-87-193-193-193s-193 86-193 193c0 99 75 181 171 192v-61l115 78-115 78v-63c-114-11-203-108-203-224 0-124 101-225 225-225s225 101 225 225h-32z" horiz-adv-x="512" />
<glyph glyph-name="glyph-52" unicode="&#xe67f;" d="m510 70c0 2-13 248-257 252v116l-253-185 252-189-2 113c3 0 6 0 10 0 52 0 150-15 222-117l30-43-2 53z m-250 138c-17 0-28-2-29-2l-13-2 2-77-168 126 170 124v-86l25 0c153 0 205-103 223-169-78 77-170 86-210 86z" horiz-adv-x="512" />
<glyph glyph-name="glyph-53" unicode="&#xe681;" d="m433 395v85h-341c-37 0-68-30-68-67v-378c0-37 31-67 68-67h396v427h-55z m23-396h-364c-20 0-36 16-36 36v378c0 20 16 36 36 36h310v-393h-299c-9 0-16-7-16-16s7-15 16-15h330v339h23v-365z m-337 249c0 0 1 1 2 1l46-31c0-2 0-4 0-6 3-16 19-27 35-23 16 3 26 19 23 35-1 3-2 6-4 9l41 83c3 1 6 2 8 4l45-26c0-2-1-4 0-6 3-16 19-27 35-23 16 3 26 18 23 34s-19 27-35 23c-2 0-4-1-6-2l-50 29c0 1 0 1 0 1-3 16-19 26-35 23-16-3-26-19-23-35 1-5 4-9 7-13l-38-78c-1 0-2 0-3 0-2-1-4-2-6-3l-42 28c0 4 0 7 0 11-4 16-19 26-35 23-16-4-26-19-23-35 3-16 19-26 35-23z" horiz-adv-x="512" />
<glyph glyph-name="glyph-54" unicode="&#xe683;" d="m487 391c-23 23-45 26-53 26l-9-1-78-76-131 129h-216v-490h396v238l115 110 1 5c0 3 3 30-25 59z m-262 28l100-100-19-18h-81v118z m141-410h-336v430h165v-168h80l-63-62h-153v-30h137l-14-37h-123v-30h111l-18-48 134 47 1 1h50v30h-19l48 46v-179z m-93 129l-71-24 27 70 208 203c6-1 17-5 29-17 12-13 15-23 16-29l-209-203z" horiz-adv-x="512" />
<glyph glyph-name="glyph-55" unicode="&#xe684;" d="m422 411v-31h17v-381h-291v19h-31v-50h353v443z m-27 69h-353v-443h353v443z m-31-412h-291v381h291v-381z m-253 345h216v-31h-216v31z m0-63h216v-31h-216v31z m0-63h216v-31h-216v31z m184-91c-1-1-3-1-4-2l-35 20c0 1 0 1 0 1-2 11-13 18-24 16-11-2-19-13-16-24 0-4 2-7 5-10l-27-54c-1 0-1 0-2 0-1-1-3-1-4-2l-30 20c1 2 1 4 0 7-2 11-13 18-24 16-11-2-18-13-16-24s13-19 24-16c1 0 1 0 2 0l32-21c0-2 0-3 0-5 2-11 13-18 24-16 12 2 19 13 17 25-1 2-2 4-3 6l28 58c2 1 4 2 6 3l31-18c0-2 0-3 0-5 2-11 13-18 24-16 12 2 19 13 17 25-3 11-14 18-25 16z" horiz-adv-x="512" />
<glyph glyph-name="glyph-56" unicode="&#xe687;" d="m272 417v63l-115-78 115-78v61c99-8 177-91 177-192 0-107-87-193-193-193s-193 86-193 193c0 47 17 92 48 128l-23 21c-37-41-57-94-57-149 0-124 101-225 225-225s225 101 225 225c0 118-92 216-209 224z" horiz-adv-x="512" />
<glyph glyph-name="glyph-57" unicode="&#xe689;" d="m423 319h-276v85l-147-100 147-100v84h276c32 0 58-27 58-61v-68c0-34-26-61-58-61h-402v-31h402c49 0 89 41 89 92v68c0 51-40 92-89 92z" horiz-adv-x="512" />
<glyph glyph-name="glyph-58" unicode="&#xe68b;" d="m459 480h-406c-29 0-53-24-53-53v-406c0-29 24-53 53-53h406c29 0 53 24 53 53v406c0 29-24 53-53 53z m22-459c0-12-10-22-22-22h-406c-12 0-22 10-22 22v406c0 12 10 22 22 22h406c12 0 22-10 22-22v-406z m-209 362h-32v-211h-65l81-119 81 119h-65z" horiz-adv-x="512" />
<glyph glyph-name="glyph-59" unicode="&#xe68d;" d="m459 480h-406c-29 0-53-24-53-53v-406c0-29 24-53 53-53h406c29 0 53 24 53 53v406c0 29-24 53-53 53z m22-459c0-12-10-22-22-22h-406c-12 0-22 10-22 22v272h450v-272z m0 303h-450v103c0 12 10 22 22 22h406c12 0 22-10 22-22v-103z m-264 66c0-17-14-31-31-31s-30 14-30 31c0 17 13 30 30 30s31-13 31-30z m139 0c0-17-13-31-30-31s-30 14-30 31c0 17 13 30 30 30s30-13 30-30z m-265-137h63v-220h-63v220z m134 0h62v-220h-62v220z m133 0h63v-220h-63v220z" horiz-adv-x="512" />
<glyph glyph-name="glyph-60" unicode="&#xe68f;" d="m508-9l-169 170c31 34 50 79 50 128 0 106-87 192-193 192s-192-86-192-192 86-192 192-192c46 0 87 16 120 42l170-170 22 22z m-473 298c0 89 73 161 161 161 89 0 161-72 161-161s-72-161-161-161c-88 0-161 72-161 161z" horiz-adv-x="512" />
<glyph glyph-name="glyph-61" unicode="&#xe691;" d="m450 398c-66 0-184 76-186 77l-8 5-9-6c-1 0-115-76-185-76h-15v-124c0-204 194-299 202-303l7-3 7 3c8 4 202 99 202 303v123l-15 1z m-16-124c0-164-145-253-178-271-33 18-178 107-178 271v94c66 7 151 58 178 75 28-17 114-67 178-75v-94z" horiz-adv-x="512" />
<glyph glyph-name="glyph-62" unicode="&#xe693;" d="m230 2l-230 156 18 27 204-138 263 392 27-18z" horiz-adv-x="512" />
<glyph glyph-name="glyph-63" unicode="&#xe695;" d="m0 480v-512h512v512h-512z m481-481h-450v450h450v-450z" horiz-adv-x="512" />
<glyph glyph-name="glyph-114" unicode="&#xe696;" d="m436 350l-26 17-177-263-135 91-17-25 160-109z m-436 130v-512h512v512h-512z m481-481h-450v450h450v-450z" horiz-adv-x="512" />
<glyph glyph-name="glyph-115" unicode="&#xe698;" d="m291-32h-70c-6 0-12 2-17 6-6 4-9 11-9 18l-8 47c-4 1-8 3-12 5l-37-28c-8-7-25-8-36 2-27 24-44 42-53 55-3 4-5 10-5 16 0 6 2 11 5 16 3 5 9 12 17 22 4 5 8 10 11 14-3 5-5 10-7 15l-48 7c-6 1-12 4-16 10-4 5-6 11-6 17v69c0 6 2 12 5 17 6 7 12 9 16 10l50 7c1 5 3 9 5 14-7 10-16 21-27 34-6 7-7 14-7 18 0 5 2 11 6 16 6 8 17 20 33 36 22 22 32 27 40 27 6 0 12-2 18-7l35-27c4 2 9 3 13 5 3 24 5 41 8 51 3 12 13 20 26 20h70c6 0 12-2 17-6 6-5 9-11 10-18l7-47c4-2 8-3 12-5l37 28c6 6 23 9 35-1 29-26 46-45 54-56 2-2 5-8 5-16 0-6-1-12-5-17-3-4-9-11-16-21-5-5-8-10-11-14 2-5 4-10 6-15l48-7c7-1 12-5 17-10 3-5 5-11 5-17v-69c0-6-2-12-5-17-4-6-10-9-17-10l-49-8c-1-4-3-9-5-13 7-9 16-20 27-34 5-6 7-12 7-18 0-7-2-13-7-18-5-7-16-19-31-34-23-23-32-27-41-27-5 0-11 2-16 5l-37 29c-4-2-8-4-12-5-3-24-6-41-9-51-3-12-13-20-26-20z m0 31v-16l0 16c0 0 0 0 0 0z m-119 81l8-4c8-4 17-8 26-11l9-3 10-64 63 1c2 10 5 28 8 53l1 10 10 3c8 3 17 7 26 11l8 5 50-39c3 2 8 7 19 17 13 13 23 24 28 31-15 16-26 30-33 41l-6 8 5 8c4 7 8 16 11 27l3 8 64 10-1 62-63 10-3 9c-3 10-6 19-11 29l-5 8 6 8c4 5 9 13 17 22 6 9 11 15 14 19-6 8-19 22-45 46l-50-38-9 5c-8 4-16 7-26 11l-9 2-10 65-62-1c-3-11-6-29-8-53l-2-10-9-3c-9-3-18-7-26-11l-9-5-50 38c-3-2-8-6-18-16-16-16-24-25-28-30 14-17 24-30 32-42l6-8-5-8c-4-9-8-18-11-26l-3-10-63-9 0-63 63-9 3-10c3-9 7-18 12-28l4-8-5-8c-4-5-10-13-18-23-6-8-11-14-14-18 8-11 23-26 46-47l50 38z m84 48c-26 0-49 9-68 28-18 19-28 42-28 68 0 26 10 49 28 68 19 18 42 28 68 28 26 0 49-10 68-28 18-19 28-42 28-68s-10-49-28-68c-19-18-42-28-68-28z m0 160c-18 0-33-6-46-18-12-13-18-28-18-46 0-18 6-33 18-46 26-25 66-25 92 0 12 13 19 28 19 46 0 18-7 33-19 46-13 12-28 18-46 18z" horiz-adv-x="512" />
<glyph glyph-name="glyph-116" unicode="&#xe69a;" d="m465 363h-65l-32 91h-224l-32-91h-65l-47-46v-288c0-29 24-53 53-53h406c29 0 53 24 53 53v288l-47 46z m-299 60h180l21-60h-222l21 60z m315-394c0-12-10-22-22-22h-406c-12 0-22 10-22 22v188h168v-105h114v105h168v-188z m-250 115v73h50v-73h-50z m250 104h-450v56l29 28h392l29-28v-56z" horiz-adv-x="512" />
<glyph glyph-name="glyph-117" unicode="&#xe69c;" d="m408 90v390h-32v-390h-67l83-122 82 122z m-288 390l-82-122h66v-390h32v390h67z" horiz-adv-x="512" />
<glyph glyph-name="glyph-118" unicode="&#xe69e;" d="m465 152l-133 57c10 15 18 32 24 48 23 14 36 33 36 53 0 13-5 25-14 35 0 3 1 6 1 8-1 74-52 127-123 127s-122-53-122-127c0-2 0-5 0-8-9-11-14-23-14-35 0-20 13-39 36-53 7-17 14-35 25-50l-133-54c-29-11-48-39-48-69v-116h512v116c0 30-19 58-47 68z m-285 126l-4 3c-16 9-25 19-25 29 0 6 4 12 10 19l5 5-1 7c0 4 0 8 0 12 0 57 37 96 91 96s91-39 91-96c0-4 0-8 0-12l-1-7 5-5c6-7 10-13 10-19 0-10-9-20-25-29l-4-3-2-5c-20-46-34-73-74-73-40 0-55 27-74 73l-2 5z m301-279h-180l-30 108 26 40c0 0-16-10-40-10-24 0-43 10-43 10l26-40-30-108h-179v85c0 17 11 33 28 39l146 60c13-9 30-15 51-15 23 0 40 7 53 17l144-62c17-6 28-22 28-39v-85z" horiz-adv-x="512" />
<glyph glyph-name="glyph-64" unicode="&#xe6a0;" d="m243 59c-45 4-86 25-116 59-23 27-36 59-40 94h53l-70 103-70-103h55c4-42 20-83 48-115 35-41 84-66 138-70 5 0 10 0 16 0 48 0 94 17 131 49l-20 24c-35-30-79-44-125-41z m215 175c-1 47-17 92-48 128-35 41-84 65-138 70-54 4-107-14-148-49l21-24c35 30 79 44 124 41 46-4 87-25 117-59 25-30 39-68 40-107h-54l70-103 70 103h-54z" horiz-adv-x="512" />
<glyph glyph-name="glyph-65" unicode="&#xe6a2;" d="m186 90h-22v142c0 12 0 24 1 34-2-2-4-4-6-6-3-2-14-11-33-27l-12 16 53 41h19v-200z m139 122c21 0 38-5 50-16 12-10 18-24 18-43 0-20-7-37-20-48-13-12-31-18-54-18-23 0-40 3-52 11v22c6-4 14-8 24-10 9-2 19-4 28-4 16 0 28 4 37 12s14 18 14 33c0 28-17 42-52 42-8 0-20-2-35-4l-11 7 7 94h100v-21h-80l-5-60c10 2 21 3 31 3z m133-244h-404c-30 0-54 24-54 53v406c0 29 24 53 54 53h404c30 0 54-24 54-53v-406c0-29-24-53-54-53z m-404 481c-13 0-23-10-23-22v-406c0-12 10-22 23-22h404c13 0 23 10 23 22v406c0 12-10 22-23 22h-404z m162-59c0-17-13-31-30-31s-30 14-30 31c0 16 13 30 30 30s30-14 30-30z m140 0c0-17-13-31-30-31s-31 14-31 31c0 16 14 30 31 30s30-14 30-30z" horiz-adv-x="512" />
<glyph glyph-name="glyph-66" unicode="&#xe6a4;" d="m256-32c-141 0-256 115-256 256s115 256 256 256 256-115 256-256-115-256-256-256z m0 481c-124 0-225-101-225-225s101-225 225-225c124 0 225 101 225 225s-101 225-225 225z m56-267h-200v31h169v167h31z" horiz-adv-x="512" />
<glyph glyph-name="glyph-67" unicode="&#xe6a6;" d="m360 480h-318v-512h428v388l-110 124z m79-481h-366v450h273l93-105v-345z m-336 224c0-84 69-153 153-153s153 69 153 153-69 153-153 153-153-69-153-153z m274 0c0-67-54-122-121-122-67 0-121 55-121 122s54 121 121 121c67 0 121-54 121-121z m-203-31h121v120h-32v-89h-89z" horiz-adv-x="512" />
<glyph glyph-name="glyph-68" unicode="&#xe6a8;" d="m348 99c-9 2-33 9-33 9-13 2-23 9-23 22v1c0 4 0 8 1 11 7 10 12 23 17 37 12 7 19 18 19 29 0 5-1 10-5 15v23c0 37-30 68-68 68s-68-31-68-68v-23c-4-5-5-10-5-15 0-12 7-22 19-29 5-14 10-27 17-37 1-3 1-7 1-11v-1c0-13-10-20-23-22 0 0-24-7-33-9-25-6-44-31-44-58h272c0 27-19 52-44 58z m114 279h-252c-8 22-17 36-17 36-8 13-25 21-40 21h-103c-33 0-50-51-50-73v-350c0-24 22-44 50-44h412c28 0 50 22 50 50v310c0 28-22 50-50 50z m19-360c0-10-9-19-19-19h-412c-10 0-19 6-19 13v350c0 16 12 40 19 42h103c5 0 13-3 14-8 2-4 18-49 32-49h263c10 0 19-9 19-19v-310z" horiz-adv-x="512" />
<glyph glyph-name="glyph-69" unicode="&#xe6aa;" d="m166 272v91c0 47 39 86 86 86s86-39 86-86h32c0 64-53 117-118 117-65 0-117-53-117-117v-91h-80v-304h394v304h-283z m252-273h-332v241h332v-241z" horiz-adv-x="512" />
<glyph glyph-name="glyph-70" unicode="&#xe6ac;" d="m487 205c-34-44-127-148-231-148-104 0-195 103-230 146l-25-19c47-59 142-158 255-158 114 0 209 100 256 160l-25 19z m-231 186c98 0 185-90 227-143l25 20c-47 57-141 154-252 154-114 0-209-100-256-160l25-19c34 44 127 148 231 148z m-96-167c0-53 43-96 96-96s96 43 96 96-43 96-96 96-96-43-96-96z m161 0c0-36-29-65-65-65s-65 29-65 65 29 65 65 65 65-29 65-65z" horiz-adv-x="512" />
<glyph glyph-name="glyph-71" unicode="&#xe6ae;" d="m459 480h-406c-29 0-53-24-53-53v-406c0-29 24-53 53-53h406c29 0 53 24 53 53v406c0 29-24 53-53 53z m-406-31h406c12 0 22-10 22-22v-188c-50 74-134 120-225 120-92 0-175-46-225-120v188c0 12 10 22 22 22z m187-124v-101c-23 1-46 3-68 7 17 51 43 84 68 94z m-98-87c-20 5-39 12-55 20 26 26 58 46 94 58-15-20-29-47-39-78z m98-45v-90h-89c1 36 6 69 13 98 24-4 50-7 76-8z m0-121v-73h-81c-4 23-7 48-7 73h88z m32 0h89c-1-25-3-50-8-73h-81v73z m0 31v90c26 1 52 4 76 8 7-29 12-62 13-98h-89z m0 121v101c25-10 51-43 68-94-22-4-45-6-68-7z m59 91c36-11 68-31 94-58-16-7-35-14-55-19-10 31-23 57-39 77z m-300-145c9 22 21 46 34 64 20-11 43-19 68-26-7-32-12-67-13-105h-89v67z m0-149v51h89c1-25 4-49 7-73h-74c-12 0-22 10-22 22z m450 0c0-12-10-22-22-22h-74c4 24 6 48 7 73h89v-51z m-89 82c-1 38-6 73-13 105 25 7 47 15 67 25 12-15 27-37 35-55l0-75h-89z" horiz-adv-x="512" />
<glyph glyph-name="glyph-72" unicode="&#xe6b0;" d="m284-32c-10 0-20 0-30 0-5 0-10 0-15 2-10 3-16 12-16 22 0 10 0 33 0 34 0 0-15 4-17 5-11 3-22 7-32 13-10 5-20 11-29 19-7 5-14 10-19 18-5 8-5 19 1 27 2 2 4 5 6 8 7 9 14 18 21 27 3 4 7 7 12 9 8 3 19 1 25-5 15-16 38-27 59-31 11-2 22-2 32 1 9 3 18 8 21 17 8 21-17 31-32 37-12 6-26 11-39 17-17 7-34 14-50 24-18 13-36 30-45 51-9 21-11 45-6 68 5 20 16 39 31 54 15 15 33 26 53 33 2 0 8 1 8 3 0 2 0 32 0 36 1 10 8 20 18 22 5 1 9 1 14 1 6 0 13 0 19 0 4 0 8 0 12 0 10-1 19-8 21-18 1-5 1-37 1-39 0-2 6-2 8-3 12-3 23-6 33-11 10-5 20-11 29-18 7-5 15-12 16-21 1-4 1-9-1-12-5-6-23-29-28-36-7-10-13-19-21-19-7 1-16 10-29 17-13 8-31 15-51 13-10 0-20-3-28-9-7-5-11-16-7-24 3-5 7-8 11-11 4-3 9-5 13-8 9-4 18-7 26-11 20-8 40-15 58-25 19-9 38-23 50-41 25-36 21-88-3-124-12-18-28-32-46-42-10-5-20-9-30-11-1-1 0-27 0-34 0-14-11-25-24-25z m-30 31c5 0 10 0 15 0 1 0 8-1 8 1 0 11 0 22 0 32 0 6 0 11 0 16 0 4-1 4 3 5 17 3 33 6 48 15 37 22 55 69 38 110-8 19-28 32-46 41-19 10-38 16-57 24-19 8-37 16-52 30-16 15-19 40-8 59 9 18 29 28 48 31 23 4 39 2 58-5 10-4 22-10 31-17l20 25c-5 3-9 6-14 9-10 6-20 10-30 13-10 3-19 4-28 5-2 1-12 1-12 2 0 10 0 20 0 31 0 5 0 11 0 17 0 1 1 6 0 6-6 0-11 0-17 0-1 0-3 0-5 0 0 0 0-2 0-2 0-11 0-23 0-34 0-5 0-10 0-15 0-4 0-3-4-4-17-4-34-8-49-17-17-11-32-28-38-47-6-20-4-46 8-64 12-18 30-30 50-39 12-6 24-11 37-16 19-8 38-15 55-27 8-6 16-15 20-25 4-9 4-21 1-31-5-20-22-34-41-40-41-14-86 5-118 31-6-8-12-16-18-23-1-2-2-2 0-3 4-4 8-7 12-10 9-6 19-12 29-16 18-8 36-11 55-14 0 0 1 0 1-1 0-1 0-2 0-4 0-6 0-11 0-17 0-10 0-21 0-32z" horiz-adv-x="512" />
<glyph glyph-name="glyph-73" unicode="&#xe6b3;" d="m458 429h-404c-30 0-54-24-54-54v-302c0-30 24-54 54-54h404c30 0 54 24 54 54v302c0 30-24 54-54 54z m-404-31h404c12 0 23-10 23-23v-41h-450v41c0 13 11 23 23 23z m404-348h-404c-12 0-23 10-23 23v168h450v-168c0-13-11-23-23-23z m-80 103h63v-63h-63v63z" horiz-adv-x="512" />
<glyph glyph-name="glyph-74" unicode="&#xe6b5;" d="m377 246c37 0 67 31 67 68s-30 68-67 68c-37 0-68-31-68-68s31-68 68-68z m0 104c20 0 36-16 36-36s-16-36-36-36c-20 0-37 16-37 36 0 20 17 36 37 36z m82 99h-406c-29 0-53-24-53-53v-344c0-29 24-53 53-53h406c29 0 53 24 53 53v344c0 29-24 53-53 53z m-406-31h406c12 0 22-10 22-22v-304l-104 112c-7 8-16 12-27 12-12 0-20-6-25-10l-21-18c-3-2-4-3-7-2l-68 73c-15 18-46 18-63-1l-135-169v307c0 12 10 22 22 22z m406-388h-406c-8 0-15 5-19 12l156 196c4 5 12 5 16 0l64-70c2-2 5-4 6-5 6-6 15-9 24-9 10 0 16 4 23 9l22 19c4 3 5 3 5 3 1 0 3-1 4-2l126-136c-3-9-11-17-21-17z" horiz-adv-x="512" />
<glyph glyph-name="glyph-75" unicode="&#xe6b7;" d="m458 366h-72l-42 43-5 4h-1c-9 7-21 11-33 11h-97c-15 0-29-6-40-17l-40-41h-74c-30 0-54-25-54-54v-234c0-30 24-55 54-55h404c30 0 54 25 54 55v234c0 29-24 54-54 54z m23-288c0-13-11-23-23-23h-404c-12 0-23 10-23 23v234c0 12 10 22 23 22h87l52 54c5 3 10 5 15 5h97c8 0 13-3 16-6l52-53h85c13 0 23-10 23-22v-234z m-225 245c-65 0-118-53-118-119s53-118 118-118 118 53 118 118-53 119-118 119z m0-206c-48 0-87 39-87 87s39 88 87 88 87-39 87-88-39-87-87-87z" horiz-adv-x="512" />
<glyph glyph-name="glyph-76" unicode="&#xe6b9;" d="m0 480v-512h512v512h-512z m191-352v112h130v-112h-130z m130-31v-98h-130v98h130z m0 270v-96h-130v96h130z m-161 0v-96h-129v96h129z m0-127v-112h-129v112h129z m192 0h129v-112h-129v112z m0 31v96h129v-96h-129z m-321-174h129v-98h-129v98z m321-98v98h129v-98h-129z" horiz-adv-x="512" />
<glyph glyph-name="glyph-77" unicode="&#xe6ba;" d="m0 480v-512h512v512h-512z m160-481h-129v131h129v-131z m0 163h-129v129h129v-129z m0 160h-129v127h129v-127z m161-323h-130v131h130v-131z m0 163h-130v129h130v-129z m0 160h-130v127h130v-127z m160-323h-129v131h129v-131z m0 163h-129v129h129v-129z m0 160h-129v127h129v-127z" horiz-adv-x="512" />
<glyph glyph-name="glyph-78" unicode="&#xe6bc;" d="m459 480h-406c-29 0-53-24-53-53v-406c0-29 24-53 53-53h406c29 0 53 24 53 53v406c0 29-24 53-53 53z m-406-31h406c12 0 22-10 22-22v-103h-450v103c0 12 10 22 22 22z m142-285v129h122v-129h-122z m122-31v-134h-122v134h122z m-286 160h133v-129h-133v129z m317 0h133v-129h-133v129z m-317-272v112h133v-134h-111c-12 0-22 10-22 22z m428-22h-111v134h133v-112c0-12-10-22-22-22z m-243 391c0-17-13-31-30-31s-30 14-30 31c0 17 13 30 30 30s30-13 30-30z m140 0c0-17-13-31-30-31s-30 14-30 31c0 17 13 30 30 30s30-13 30-30z" horiz-adv-x="512" />
<glyph glyph-name="glyph-119" unicode="&#xe6be;" d="m141 152l23-23 232 232 62-62 35 181-182-35 62-62z m302 91c-9 0-16-8-16-16v-210c0-9-8-17-18-17h-361c-9 0-17 8-17 17v362c0 10 8 17 17 17h179c9 0 16 8 16 17s-7 16-16 16h-179c-27 0-50-22-50-50v-362c0-27 23-49 50-49h361c28 0 50 22 50 49v210c0 8-7 16-16 16z" horiz-adv-x="512" />
<glyph glyph-name="glyph-120" unicode="&#xe6c0;" d="m496 201h-61l1 143 33 33c14 14-8 36-22 22l-43-43h-34v10c0 62-52 114-114 114s-114-52-114-114v-10h-34l-43 43c-14 14-36-8-22-22l33-33v-143h-60c-20 0-20-31 0-31h60c0-8 3-66 34-108l-67-67c-15-15 8-37 22-22 7 3 50 49 65 65 69-68 183-68 252 0 16-16 59-59 65-65 14-14 37 7 22 22l-67 67c24 33 33 68 33 108h61c20 0 20 31 0 31z m-323 165c0 107 166 107 166 0v-10h-166v10z m232-53c0-45 0-89 0-133 0-81-49-152-133-161v250h-32v-250c-88 9-133 84-133 167 0 46-1 92 0 139h298l0-12z" horiz-adv-x="512" />
<glyph glyph-name="glyph-121" unicode="&#xe6c2;" d="m409 480h-306c-30 0-55-25-55-56v-400c0-31 25-56 55-56h306c30 0 55 25 55 56v400c0 31-25 56-55 56z m24-456c0-14-11-25-24-25h-306c-13 0-24 11-24 25v400c0 14 11 25 24 25h306c13 0 24-11 24-25v-400z m-51 377h-251c-9 0-17-8-17-18v-21c0-9 8-17 17-17h251c9 0 17 8 17 17v21c0 10-8 18-17 18z m-189-137c0-18-15-33-33-33s-33 15-33 33c0 18 14 33 33 33s33-15 33-33z m96 0c0-18-15-33-33-33s-33 15-33 33c0 18 15 33 33 33s33-15 33-33z m96 0c0-18-14-33-33-33s-33 15-33 33c0 18 15 33 33 33s33-15 33-33z m-192-92c0-18-15-33-33-33s-33 15-33 33c0 19 14 34 33 34s33-15 33-34z m96 0c0-18-15-33-33-33s-33 15-33 33c0 19 15 34 33 34s33-15 33-34z m96 0c0-18-14-33-33-33s-33 15-33 33c0 19 15 34 33 34s33-15 33-34z m-192-97c0-18-15-33-33-33s-33 15-33 33c0 19 14 34 33 34s33-15 33-34z m96 0c0-18-15-33-33-33s-33 15-33 33c0 19 15 34 33 34s33-15 33-34z m96 0c0-18-14-33-33-33s-33 15-33 33c0 19 15 34 33 34s33-15 33-34z" horiz-adv-x="512" />
<glyph glyph-name="glyph-122" unicode="&#xe6c4;" d="m513 402c-1 3-5 30-41 50-14 9-29 13-43 13-12 0-19-3-21-4l-4-2-28-48c-6 2-11 3-17 3v-31c0 0 1 0 1 0l-74-131h-216v-30h198l-16-28h-182v-31h176l-18-127c0-2 1-4 3-6 2-1 4-1 6 1l117 89 24 42 0-149c0-8-7-14-15-14h-317c-8 0-14 6-14 14v356c0 6 11 14 17 14v31c-21 0-48-20-48-45v-356c0-25 21-45 45-45h317c25 0 45 20 45 45l0 202 105 182 0 5z m-179-259l-63-44 6 76 147 259c6 1 17 1 33-8 16-9 22-19 24-24l-147-259z m-227 202h196c18 0 34 15 34 34v34h-17c-18 0-61 16-67 33-7 20-26 34-48 34-22 0-41-14-48-34-6-17-49-33-67-33h-17v-34c0-19 16-34 34-34z m77 89c0 7 4 14 10 17 3 2 7 4 11 4v0c12 0 21-10 21-21v0c0-8-5-15-11-19-1 0-1 0-2-1-2 0-4-1-6-1-1 0-1 0-2 0v0c-12 0-21 9-21 21v0z" horiz-adv-x="512" />
<glyph glyph-name="glyph-123" unicode="&#xe6c6;" d="m482 323c-11 0-24-5-31-9l-405 110c-22 7-46-11-46-33v-313c0-19 16-34 36-34 3 0 7 0 10 1l161 43 2-5c11-39 32-49 53-49 9 0 18 2 26 4l95 26c16 5 34 10 44 27 7 13 7 30 1 54l-1 3 23 6c6-4 17-8 32-8 20 0 30 10 30 30v117c0 18-12 30-30 30z m-84-187c4-15 4-25 1-30-3-6-13-8-25-12l-94-26c-22-6-32-7-42 24l-1 5 159 43 2-4z m83 41c-12 0-18 5-18 5l-6 6-420-113c-2-1-6 1-6 3v313c0 2 2 3 6 3 0 0 0 0 1 0l417-113 5 3c6 3 15 7 21 8v-115z" horiz-adv-x="512" />
<glyph glyph-name="glyph-79" unicode="&#xe6c8;" d="m256 480c-126 0-225-49-225-112v-288c0-63 99-112 225-112s225 49 225 112v288c0 63-99 112-225 112z m0-31c114 0 194-43 194-81s-80-82-194-82-194 43-194 82 80 81 194 81z m0-450c-114 0-194 43-194 81v31c39-33 110-55 194-55s155 22 194 55v-31c0-38-80-81-194-81z m0 89c-114 0-194 42-194 81v38c39-33 110-54 194-54s155 21 194 54v-38c0-39-80-81-194-81z m0 96c-114 0-194 43-194 81v45c39-33 110-55 194-55s155 22 194 55v-45c0-38-80-81-194-81z" horiz-adv-x="512" />
<glyph glyph-name="glyph-80" unicode="&#xe6ca;" d="m474 388c-8 4-179 81-200 90-2 1-26 5-42-2l-194-87c-13-6-36-23-36-49v-226c0-13 7-29 23-38 1-1 157-84 186-99 12-6 25-9 40-9 26 0 50 10 60 15l176 93c9 4 23 17 23 38v208c0 25 0 48-36 66z m-229 59c3 2 7 3 11 3 4 0 8-1 7-1 76-34 191-86 197-89 1 0 2 0 3-1l-205-108-209 108c1 1 2 1 2 1l194 87z m-206-343c-4 2-6 8-6 10v218l209-108v-224c-6 1-12 2-17 5-28 15-184 98-186 99z m440 10c0-7-6-10-6-10l-177-94c-3-2-12-5-23-8v222l206 108c0-3 0-6 0-10v-208z" horiz-adv-x="512" />
<glyph glyph-name="glyph-81" unicode="&#xe6cc;" d="m0 480v-512h512v512h-512z m97-454h-61v61h61v-61z m0 115h-61v61h61v-61z m0 115h-61v61h61v-61z m0 116h-61v60h61v-60z m277-351h-236v182h236v-182z m0 234h-236v171h236v-171z m103-229h-61v61h61v-61z m0 115h-61v61h61v-61z m0 115h-61v61h61v-61z m0 116h-61v60h61v-60z" horiz-adv-x="512" />
<glyph glyph-name="glyph-82" unicode="&#xe6ce;" d="m179 109l189 105-189 105z m279 320h-404c-30 0-54-24-54-54v-302c0-30 24-54 54-54h404c30 0 54 24 54 54v302c0 30-24 54-54 54z m23-356c0-13-11-23-23-23h-404c-12 0-23 10-23 23v302c0 13 11 23 23 23h404c12 0 23-10 23-23v-302z" horiz-adv-x="512" />
<glyph glyph-name="glyph-83" unicode="&#xe6d0;" d="m153 403c-42 0-76-34-76-76 0-42 34-76 76-76s76 34 76 76c0 42-34 76-76 76z m0-121c-25 0-45 20-45 45s20 45 45 45 45-20 45-45-20-45-45-45z m342-61l-224 238c-13 13-31 21-50 21h-160c-34 0-61-27-61-61v-155c0-19 7-37 21-51l237-227c12-12 27-18 43-18s32 6 44 18l149 149c12 12 18 27 18 44 0 16-6 32-17 42z m-23-64l-149-149c-11-11-32-11-43 0l-237 227c-8 8-12 18-12 29v155c0 16 14 30 30 30h160c10 0 21-5 28-12l223-237c6-6 9-13 9-21 0-9-3-16-9-22z" horiz-adv-x="512" />
<glyph glyph-name="glyph-84" unicode="&#xe6d2;" d="m81 480v-512l171 161 170-161v512h-341z m310-439l-139 131-140-132v409h279v-408z" horiz-adv-x="512" />
<glyph glyph-name="glyph-85" unicode="&#xe6d4;" d="m459 210l-172-172c-52-51-135-51-186 0-52 51-52 135 0 186l199 200c33 33 91 33 124 0 16-16 26-39 26-62 0-23-9-45-26-62l-192-192c-17-17-47-17-64 0-8 8-13 20-13 32s5 23 13 32l166 165-23 22-165-165c-15-15-22-34-22-54s7-40 22-54c29-29 79-29 108 0l193 192c22 22 34 52 34 84 0 32-12 62-35 84-45 45-123 45-168 0l-200-200c-63-63-63-167 0-230 32-32 74-48 116-48s83 16 115 48l172 172-22 22z" horiz-adv-x="512" />
<glyph glyph-name="glyph-86" unicode="&#xe6d6;" d="m462 361h-252c-1 2-1 4-2 6-2 8-2 11-5 15l-10 15c-8 13-25 21-40 21h-103c-33 0-50-51-50-72v-288c0-25 22-44 50-44h412c28 0 50 22 50 50v247c0 28-22 50-50 50z m19-297c0-11-9-19-19-19h-412c-10 0-19 6-19 13v288c0 15 12 40 19 41h103c5 0 12-3 14-8l9-13c1-2 1-4 2-6 4-18 7-30 21-30h263c10 0 19-8 19-19v-247z" horiz-adv-x="512" />
<glyph glyph-name="glyph-87" unicode="&#xe6d8;" d="m256 480c-85 0-153-68-153-152 0-18 4-39 11-58l142-302 142 303c8 18 11 37 11 57 0 84-68 152-153 152z m113-197l-113-241-113 240c-6 15-9 31-9 46 0 67 55 121 122 121s122-54 122-121c0-16-3-31-9-45z m-113 110c-39 0-70-31-70-70s31-70 70-70 70 32 70 70c0 39-31 70-70 70z m0-108c-21 0-39 17-39 38s18 39 39 39 39-17 39-39c0-21-18-38-39-38z" horiz-adv-x="512" />
<glyph glyph-name="glyph-88" unicode="&#xe6da;" d="m280-27l-31 242-249 50 512 210-232-502z m-174 302l171-34 20-157 154 333-345-142z" horiz-adv-x="512" />
<glyph glyph-name="glyph-89" unicode="&#xe6dc;" d="m256 480c-141 0-256-115-256-256s115-256 256-256 256 115 256 256-115 256-256 256z m-16-126c-21 0-42 2-61 6 15 46 38 76 61 85v-91z m0-32v-82h-82c1 33 6 63 12 90 22-4 46-7 70-8z m0-114v-86c-24-1-47-4-69-8-7 28-11 60-13 94h82z m0-118v-87c-22 9-44 38-60 81 19 4 40 6 60 6z m32 0c20 0 41-2 60-6-16-43-38-72-60-81v87z m0 32v86h82c-1-34-6-66-13-94-22 4-45 7-69 8z m0 118v82c24 1 48 4 70 8 6-27 11-57 12-90h-82z m0 114v91c23-9 46-39 61-85-19-4-40-6-61-6z m57 82c32-11 61-29 84-52-15-7-31-13-49-17-9 27-21 51-35 69z m-181-69c-18 4-34 10-49 17 23 23 52 41 84 52-14-18-26-42-35-69z m-8-30c-7-30-12-63-13-97h-95c3 45 20 86 45 120 19-9 40-17 63-23z m-13-129c1-36 6-70 14-100-23-6-43-14-61-23-28 35-45 77-48 123h95z m22-130c9-26 21-49 34-66-31 10-58 27-82 49 15 7 31 12 48 17z m214 0c17-5 33-10 48-17-24-22-51-39-82-49 13 17 25 40 34 66z m8 30c8 30 13 64 14 100h95c-3-46-20-88-48-123-18 9-38 17-61 23z m14 132c-1 34-6 67-13 97 23 6 44 14 63 23 25-34 42-75 45-120h-95z" horiz-adv-x="512" />
<glyph glyph-name="glyph-90" unicode="&#xe6de;" d="m0 420v-392h512v392h-512z m481-31v-68l-225-108-225 108v68h450z m-450-330v228l225-109 225 109v-228h-450z" horiz-adv-x="512" />
<glyph glyph-name="glyph-91" unicode="&#xe6e0;" d="m501 126c-7 7-16 11-26 11h-20v63c0 14-5 26-15 36-10 10-22 15-35 15h-133v60h20c10 0 19 4 26 11 7 7 11 17 11 27v71c0 10-4 19-11 26-7 7-16 11-26 11h-71c-11 0-20-4-27-11-7-7-11-16-11-26v-71c0-11 4-20 11-27 7-7 16-11 27-11h19v-60h-132c-14 0-26-5-36-15-9-10-15-22-15-36v-63h-20c-10 0-19-4-26-11-7-7-11-16-11-27v-71c0-10 4-19 11-26 7-7 16-11 26-11h71c11 0 20 4 27 11 7 7 11 16 11 26v71c0 11-4 20-11 27-7 7-16 11-27 11h-19v63c0 6 2 10 6 14 4 4 8 5 13 5h132v-81h-20c-10 0-19-4-26-11-7-7-11-16-11-26v-71c0-10 4-19 11-27 7-7 16-10 26-10h72c10 0 19 3 26 10 7 7 11 17 11 27v71c0 10-4 19-11 26-7 7-16 11-26 11h-20v81h133c5 0 9-1 13-5 4-4 6-8 6-14v-63h-20c-11 0-20-4-27-11-7-7-11-16-11-27v-71c0-10 4-19 11-26 7-7 16-11 27-11h71c10 0 19 4 26 11 7 7 11 16 11 26v71c0 11-4 20-11 27z m-284 219c-1 1-2 2-2 4v71c0 2 1 3 2 4 1 1 2 1 4 1h71c2 0 3 0 4-1 1-1 1-2 1-4v-71c0-2 0-3-1-4-1-2-2-2-4-2h-71c-2 0-3 0-4 2z m-105-242c2-1 2-2 2-4v-71c0-2 0-3-2-4-1-1-2-1-4-1h-71c-2 0-3 0-4 1-1 1-1 2-1 4v71c0 2 0 3 1 4 1 2 2 2 4 2h71c2 0 3 0 4-2z m184 2c1-1 1-2 1-4v-71c0-2 0-3-1-4-2-1-3-2-4-2h-72c-1 0-2 1-4 2s-1 2-1 4v71c0 2 0 3 1 4 2 1 3 2 4 2h72c1 0 2-1 4-2z m184-77c0-2 0-3-1-4-2-1-2-1-4-1h-71c-2 0-3 0-4 1-2 1-2 2-2 4v71c0 2 0 3 2 4 1 2 2 2 4 2h71c2 0 2-1 4-2 1-1 1-2 1-4v-71z" horiz-adv-x="512" />
<glyph glyph-name="glyph-92" unicode="&#xe6e2;" d="m32 480h-32v-512h512v32h-480z m200-178l72-72 140 141 42-41 26 136-136-26 46-47-118-118-72 72-153-152 23-22z m0-103l-151-151h404v261l-181-182-72 72z m221-119h-296l75 75 72-72 149 149v-152z" horiz-adv-x="512" />
<glyph glyph-name="glyph-93" unicode="&#xe6e4;" d="m358 480v-512h154v512h-154z m123-481h-92v450h92v-450z m-481-31h154v209h-154v-209z m31 178h92v-147h-92v147z m148-178h154v348h-154v-348z m31 317h92v-286h-92v286z" horiz-adv-x="512" />
<glyph glyph-name="glyph-124" unicode="&#xe6e6;" d="m283 430c-4 0-9 0-13 0v-13h0v-210l-204 0v0h-12c0-2 0-4 0-6 0-126 102-229 229-229 126 0 229 103 229 229s-103 229-229 229z m0-431c-105 0-191 79-201 181l215 0v223c105-7 188-95 188-202 0-112-91-202-202-202z m-49 477h-12c-122 0-222-99-222-221l0-13h234v234z m-25-208h-183c7 97 85 175 183 182v-182z" horiz-adv-x="512" />
<glyph glyph-name="glyph-125" unicode="&#xe6e8;" d="m256 480c-141 0-256-115-256-256s115-256 256-256 256 115 256 256-115 256-256 256z m-225-256c0 119 93 216 210 224v-227l-133-166c-47 41-77 102-77 169z m225-225c-45 0-88 14-123 37l139 174v238c117-8 209-106 209-224 0-124-101-225-225-225z" horiz-adv-x="512" />
<glyph glyph-name="glyph-126" unicode="&#xe6ea;" d="m338 481h-164c-42 0-76-34-76-75v-361c0-42 34-76 76-76h164c42 0 76 34 76 76v361c0 41-34 75-76 75z m44-436c0-24-20-44-44-44h-164c-24 0-44 20-44 44v361c0 24 20 44 44 44h164c24 0 44-20 44-44v-361z m-48 379h-154c-17 0-31-14-31-31v-301c0-16 14-30 31-30h154c17 0 31 14 31 30v301c0 17-14 31-31 31z m-154-332v300l153 1 1-300-154-1z m91-47h-30c-8 0-15-7-15-15 0-8 7-15 15-15h30c8 0 15 7 15 15 0 8-7 15-15 15z" horiz-adv-x="512" />
<glyph glyph-name="glyph-127" unicode="&#xe6ec;" d="m436 480h-360c-20 0-37-17-37-37v-438c0-20 17-37 37-37h360c20 0 37 17 37 37v438c0 20-17 37-37 37z m6-475c0-3-3-6-6-6h-360c-3 0-6 3-6 6v438c0 3 3 6 6 6h360c3 0 6-3 6-6v-438z m-53 411h-267c-13 0-23-11-23-25v-318c0-14 10-24 23-24h267c13 0 24 11 24 24v318c0 14-11 25-24 25z m-7-336h-252v305h252v-305z m-126-39c-10 0-18-8-18-18s8-18 18-18c10 0 18 8 18 18 0 10-8 18-18 18z" horiz-adv-x="512" />
<glyph glyph-name="glyph-128" unicode="&#xe6ee;" d="m78 146h360v225h-360v-225z m31 194h298v-163h-298v163z m373-188v222c0 25-21 46-46 46h-360c-25 0-46-21-46-46v-222l-29-87-1-5c0-25 20-46 46-46h420c26 0 46 21 46 46l-30 92z m-275-107l7 27h81l6-27h-94z m259 0h-133l-14 58h-128l-17-58h-128c-8 0-14 6-15 13l29 87 1 229c0 8 7 15 15 15h360c8 0 15-7 15-15v-224l30-92c-1-7-7-13-15-13z" horiz-adv-x="512" />
<glyph glyph-name="glyph-94" unicode="&#xe6f0;" d="m462 480h-412c-28 0-50-22-50-50v-321c0-27 22-50 50-50h139v-6c0-16-12-38-22-42l-30-10v-33h238v33l-30 10c-10 4-22 26-22 42v6h139c28 0 50 23 50 50v321c0 28-22 50-50 50z m-261-481c12 16 19 38 19 54v6h72v-6c0-16 6-38 19-54h-110z m280 110c0-10-9-19-19-19h-412c-10 0-19 9-19 19v321c0 10 9 19 19 19h412c10 0 19-9 19-19v-321z m-430 13h410v307h-410v-307z m31 276h348v-245h-348v245z" horiz-adv-x="512" />
<glyph glyph-name="glyph-95" unicode="&#xe6f2;" d="m428 410c46-47 69-108 69-184 0-69-23-130-69-181-45-51-103-77-173-77-69 0-127 26-172 77s-68 112-68 181c0 76 22 137 67 184 45 47 102 70 173 70 70 0 128-23 173-70z m-87-107c-2 21-6 41-12 61-6 19-15 34-27 45-13 11-28 16-47 16-19 0-34-5-46-15-12-11-21-26-27-46s-9-40-11-60c-2-20-3-44-3-73 0-18 0-33 1-46s2-27 3-45c2-17 5-32 8-44 4-12 9-24 15-35 7-12 15-21 25-27s22-9 35-9c13 0 25 3 36 9 10 6 18 15 24 27 7 11 12 23 16 35s7 27 9 44c2 18 3 33 3 46s1 28 1 45c0 27-1 51-3 72z" horiz-adv-x="512" />
<glyph glyph-name="glyph-96" unicode="&#xe6f3;" d="m512 302c0-6-1-19-1-37-2-18-4-36-7-54-3-18-10-38-18-60-10-22-20-41-33-59-13-18-31-34-54-50-23-16-48-27-77-34-15-4-31-6-47-7-1 0-2 0-4-1-13 0-27 0-40 0-83 7-146 48-189 122-20 36-31 69-34 101-2-9-3-17-4-24-2 38 1 69 9 93-6-10-10-19-13-28 5 30 12 54 21 71 1 4 5 12 12 22 0 2 0 3 0 3-1 19 0 36 6 51s9 24 12 28c3 4 6 6 8 8 1-16 9-31 25-46 4 0 8-1 11-1 17 4 34 3 52-1 11 14 27 23 49 27l19 1c-19-11-31-27-35-49 7-15 17-23 29-23 10 0 17 0 22 0 11 0 17-1 18-3v-2c1 0 1-1 0-3v-2c-1-6-3-11-7-15-1 0-1 0-1 0s0-1-1-1c0 0-3-2-9-6-8-5-14-9-19-13-9-5-13-9-13-11v-1h-1c2-4 3-9 4-15 1-6 2-9 1-11 0-3 0-6 0-9-8 4-16 7-23 8-9-4-15-8-16-13-1-2-1-5-2-8 0-12 9-24 27-35 7-4 15-7 23-8 7 0 13 0 18 1 4 2 9 4 16 6 6 3 10 5 13 5 20 6 36 1 49-14 4-4 5-7 2-11-2-4-5-5-10-4-2 0-3 0-4 0-1 0-2 0-5-1-2-1-4-2-4-2-2 0-3-1-6-3s-4-3-5-4c-1 0-3-2-6-4s-6-4-8-5c-8-6-20-10-35-13s-27-2-37 0c8-6 14-10 19-13 5-2 12-6 23-12 11-6 20-9 27-11s18-3 29-3c12 0 23 2 32 6s20 11 31 21c11 10 22 22 32 36 2 4 3 6 4 6 1 0 0-9-5-27-2-9-3-14-2-14 11 8 19 24 23 46s5 45 2 66c8-3 14-9 17-19l2-2c4 13 6 30 7 50 1 20-1 37-6 50 9-2 17-11 24-26-2 11-5 21-9 30-4 9-8 17-14 23s-10 12-15 18c-6 6-12 10-18 14s-12 7-17 10c-6 3-12 5-17 7-5 2-9 3-13 4s-7 2-9 2c-2 0-3 0-2 0 17 5 34 7 51 7-2 4-6 7-12 9-5 3-11 5-18 7s-13 4-19 5c-7 2-14 3-23 5h1c19 6 48 2 88-12 15-4 28-13 40-25 12-12 19-22 22-28s6-11 7-15v4c1 4 0 9-2 16-1 7-4 14-7 22 1 0 2 0 3-1 1-1 4-5 7-11s8-16 13-28c7-18 14-50 19-97l6 38c1-3 1-8 1-14z" horiz-adv-x="512" />
<glyph glyph-name="glyph-97" unicode="&#xe6f4;" d="m183 185v-1c0-17 4-33 12-48 9-16 21-29 37-39s34-14 53-14c19 0 37 5 53 14s28 23 37 39h125c-16-46-44-83-84-112s-85-44-135-44c-37 0-72 8-105 24-74-36-127-38-159-5-11 10-17 28-17 52s5 52 14 83c10 30 25 63 48 99s48 69 78 99c18 18 29 29 34 33-44-21-83-53-118-98 13 52 40 94 81 127 42 33 90 49 144 49 6 0 12 0 17-1 39 18 75 28 108 30 32 2 55-3 68-16 27-27 29-70 7-129 21-35 31-74 31-115 0-10 0-19-1-27h-328z m-22-173c-47 29-80 70-99 122-31-62-36-105-12-128 20-20 57-18 111 6z m217 234c-1 26-11 47-30 65s-42 27-67 27c-26 0-48-9-67-27s-29-39-31-65h195z m-11 180c45-18 80-47 107-88 16 44 16 74-2 92-19 19-54 18-105-4z" horiz-adv-x="512" />
<glyph glyph-name="glyph-98" unicode="&#xe6f5;" d="m291 98l-73-127c-62 9-114 38-155 85-42 48-63 104-63 168 0 45 11 87 33 126l104-182c11-22 27-40 48-54 21-14 45-21 71-21 12 0 24 2 35 5z m-162 159l-73 127c24 30 53 54 88 71s72 25 112 25c46 0 89-11 127-34 40-23 70-53 93-92h-209c-3 1-7 1-11 1-30 0-57-9-80-27-24-19-40-42-47-71z m62-98c-19 18-28 40-28 65s9 47 28 65c18 19 40 28 65 28 25 0 47-9 65-28 19-18 28-40 28-65s-9-47-28-65c-18-19-40-28-65-28-25 0-47 9-65 28z m157 159h146c12-30 18-61 18-94 0-70-25-130-74-180-49-50-109-75-179-76l105 181c15 23 23 48 23 75 0 37-13 68-39 94z" horiz-adv-x="512" />
</font>
</defs>
</svg>
=======
<!DOCTYPE svg PUBLIC "-//W3C//DTD SVG 1.1//EN" "http://www.w3.org/Graphics/SVG/1.1/DTD/svg11.dtd" >
<svg xmlns="http://www.w3.org/2000/svg" xmlns:xlink="http://www.w3.org/1999/xlink" version="1.1">
<metadata></metadata>
<defs>
<font id="paylocityiconsregular" horiz-adv-x="512" >
<font-face units-per-em="512" ascent="480" descent="-32" />
<missing-glyph horiz-adv-x="256" />
<glyph horiz-adv-x="0" d="M0 0v0v0v0z" />
<glyph horiz-adv-x="0" d="M0 0v0v0v0z" />
<glyph horiz-adv-x="0" d="M0 0v0v0v0z" />
<glyph unicode=" " horiz-adv-x="256" d="M0 0v0v0v0z" />
<glyph unicode="&#x25fc;" horiz-adv-x="500" d="M0 0v0v0v0v0z" />
<glyph unicode="&#xe600;" d="M209 330q0 19 13.5 32t32.5 13t32 -13t13 -32t-13 -32.5t-32 -13.5t-32.5 13.5t-13.5 32.5v0zM283 112q-9 0 -14.5 4.5t-5.5 12.5l27 111q2 5 -1.5 9.5t-9.5 4.5h-92v-11l19 -5q6 -1 9.5 -6t1.5 -11l-23 -103q0 -19 11.5 -32.5t30.5 -13.5q50 0 72 23l22 23v15l-12 -10.5 t-35 -10.5v0zM437 43q-36 -37 -83 -56t-98 -19t-98 19t-83 56q-38 37 -56.5 84.5t-18.5 96.5t18.5 96.5t56.5 84.5q36 36 83 55.5t98 19.5t98 -19.5t83 -55.5q38 -38 56.5 -85t18.5 -96t-18.5 -96.5t-56.5 -84.5v0zM415 383q-32 32 -73 49t-86 17t-86 -17t-73 -49 q-33 -33 -49.5 -74.5t-16.5 -84.5t16.5 -84.5t49.5 -74.5q32 -32 73 -49t86 -17t86 17t73 49q33 33 49.5 74.5t16.5 84.5t-16.5 84.5t-49.5 74.5v0z" />
<glyph unicode="&#xe601;" d="M407 -32l-256 256l256 256l23 -23l-234 -233l234 -233zM78 480h31v-510h-31v510v0z" />
<glyph unicode="&#xe602;" d="M512 240h-240v240h-32v-240h-240v-32h240v-240h32v240h240v32z" />
<glyph unicode="&#xe603;" d="M91 480l256 -256l-256 -256l-22 23l233 233l-233 233zM389 478h31v-510h-31v510v0z" />
<glyph unicode="&#xe604;" d="M437 405q-36 36 -83 55.5t-98 19.5t-98 -19.5t-83 -55.5q-38 -37 -56.5 -84.5t-18.5 -96.5t19 -96.5t56 -84.5q36 -36 83 -55.5t98 -19.5t98 19.5t83 55.5t55.5 83t19.5 98t-19.5 98t-55.5 83v0zM415 65q-32 -32 -73 -49t-86 -17t-86 17t-73 49q-33 33 -49.5 74.5 t-16.5 84.5t16.5 84.5t49.5 74.5q32 32 73 49t86 17t86 -17t73 -49t49 -73t17 -86t-17 -86t-49 -73v0zM268 358h-31v-118h-118v-32h118v-118h31v118h118v32h-118v118z" />
<glyph unicode="&#xe606;" d="M450 459q-5 -1 -11 -2t-13 -2l-7 -1q-11 -2 -24.5 -3t-28.5 -1q-21 0 -41 3.5t-40 7.5l-17 4q-25 5 -52.5 10t-56.5 5q-56 0 -80 -8.5t-30 -11.5l-12 -9v-483h33v206q12 3 35 6.5t54 1.5q16 0 32.5 -4t33.5 -8q7 -2 15 -4t17 -4q26 -5 53.5 -10t57.5 -5q15 0 28.5 1.5 t24.5 2.5l9 1q8 1 14.5 2t11.5 2l14 2v304l-20 -3v0zM437 186q-2 -1 -5 -1t-5 -1l-10 -1q-11 -1 -23 -2.5t-26 -1.5q-28 0 -54 5t-51 10q-8 2 -15.5 3.5t-14.5 3.5q-18 5 -36 9t-37 5h-8.5h-8.5q-23 0 -41.5 -2.5t-31.5 -5.5v227q4 2 24.5 8t64.5 6q27 0 52.5 -4.5 t49.5 -9.5l17 -4q21 -5 43 -9t45 -4q16 0 31 1.5t27 3.5l6 1q2 0 4 0.5t3 0.5v-238v0z" />
<glyph unicode="&#xe608;" d="M377 195q1 -6 1.5 -11t0.5 -11q0 -72 -51.5 -123t-123.5 -51t-123 51t-51 123t51 123t123 51q6 0 11.5 -0.5t10.5 -0.5l-8 31q-3 0 -6.5 0.5t-7.5 0.5q-42 0 -79 -16.5t-65 -44t-44 -65t-16 -79.5t16 -79.5t44 -65t65 -43.5t79 -16q43 0 80 16t65 43.5t44 65t16 79.5 q0 4 -0.5 7t-0.5 7l-31 8v0zM85 173q0 -49 35 -84t84 -35q50 0 84.5 35t34.5 84q0 8 -1 16.5t-4 15.5l-25 -26v-3v-3q0 -37 -26 -63t-63 -26q-36 0 -62 26t-26 63t26 63t62 26q4 0 8 -0.5t7 -1.5l24 25q-9 3 -18.5 5t-20.5 2q-49 0 -84 -35t-35 -84v0zM221 210l-8 2t-9 1 q-16 0 -28 -11.5t-12 -28.5t12 -28.5t28 -11.5q17 0 29 11.5t12 28.5q0 4 -1 7.5t-2 7.5l55 55l104 -26l111 111l-104 27q4 4 4 10t-4 10q-5 4 -11 4t-10 -4l-26 104l-111 -111l26 -103l-55 -55v0zM391 251l-69 17l62 61l69 -17l-62 -61v0zM283 359l62 61l17 -69l-61 -61 l-18 69v0z" />
<glyph unicode="&#xe60a;" d="M211 233l43 74q2 4 1 9t-5 7l-31 18q-4 2 -8.5 1t-7.5 -6l-47 -81l-51 -89l-43 -75q-2 -4 -1 -9t5 -7l31 -18q4 -2 8.5 -1t7.5 6l59 104l39 67v0zM498 255h-102q9 -17 17 -32.5t14 -26.5q4 -8 7 -13.5t4 -8.5l2 -4t2 -5h56q5 0 8 3t3 8v68q0 5 -3 8t-8 3v0zM248 255 l-51 -89h139q-7 15 -17.5 36.5t-23.5 52.5h-47v0zM132 255h-118q-5 0 -8 -3t-3 -7v-69q0 -4 3 -7t8 -3h66l52 89v0zM87 44l-31 18q-4 2 -7.5 0.5t-3.5 -6.5l-5 -46q-1 -5 1.5 -6.5t6.5 1.5l39 27q4 2 4 6t-4 6v0zM420 164q0 1 -0.5 1t-0.5 1v0q-2 3 -7 13t-12 23h-0.5 t-0.5 1t-0.5 2t-1.5 2q0 1 -0.5 1.5t-0.5 1.5q-1 1 -1 1.5t-1 1.5q0 1 -0.5 2l-1.5 3v0.5t-1 0.5q0 2 -1 3t-2 3v0.5v0.5q-17 31 -35 64t-31 53q-21 35 -45.5 78.5t-32.5 38.5q-12 -5 11.5 -59.5t35.5 -81.5q6 -14 18.5 -43.5t26.5 -59.5t26.5 -54t16.5 -26q9 -4 14 -3t11 4 q6 2 13.5 9.5t2.5 17.5v0zM454 92l-14 28q-3 5 -8 6.5t-10 -0.5l-17 -10q-5 -2 -6 -7t1 -9l19 -29q2 -5 7.5 -6t9.5 1l13 8q5 3 6 8.5t-1 9.5v0zM450 52q-4 -3 -8.5 -11t5.5 -21q10 -14 27 -18.5t20 -13.5l-2 43t-42 21v0z" />
<glyph unicode="&#xe60b;" d="M178 199q9 0 15 5.5t7 13.5h1v20.5v21.5q0 9 -6.5 15.5t-16.5 6.5q-9 0 -15.5 -6.5t-6.5 -15.5v-42h1q1 -8 7 -13.5t14 -5.5v0zM334 199q8 0 14 5.5t7 13.5h1v20.5v21.5q0 9 -6.5 15.5t-15.5 6.5q-10 0 -16.5 -6.5t-6.5 -15.5v-42h1q1 -8 7 -13.5t15 -5.5v0zM459 480 h-406q-22 0 -37.5 -15.5t-15.5 -37.5v-406q0 -22 15.5 -37.5t37.5 -15.5h406q22 0 37.5 15.5t15.5 37.5v406q0 22 -15.5 37.5t-37.5 15.5v0zM481 21q0 -9 -6.5 -15.5t-15.5 -6.5h-406q-9 0 -15.5 6.5t-6.5 15.5v313h450v-313v0zM481 365h-450v62q0 9 6.5 15.5t15.5 6.5h406 q9 0 15.5 -6.5t6.5 -15.5v-62v0zM259 55q41 0 78 17t63 48q4 5 3.5 11.5t-5.5 10.5t-11.5 3.5t-10.5 -5.5q-22 -26 -52.5 -40t-64.5 -14q-36 0 -68.5 16.5t-54.5 45.5q-4 5 -10 6t-12 -3q-5 -4 -6 -10t3 -12q27 -35 65.5 -54.5t82.5 -19.5v0zM198 422h-111q-6 0 -11 -4.5 t-5 -10.5q0 -7 5 -11.5t11 -4.5h111q6 0 11 4.5t5 11.5q0 6 -5 10.5t-11 4.5v0z" />
<glyph unicode="&#xe60d;" d="M256 480q-53 0 -99.5 -20t-81.5 -55t-55 -81.5t-20 -99.5t20 -99.5t55 -81.5t81.5 -55t99.5 -20t99.5 20t81.5 55t55 81.5t20 99.5t-20 99.5t-55 81.5t-81.5 55t-99.5 20v0zM256 -1q-46 0 -87 18t-71.5 48.5t-48.5 71.5t-18 87q0 47 18 87.5t48.5 71t71.5 48.5t87 18 t87 -18t71.5 -48.5t48.5 -71.5t18 -87t-18 -87t-48.5 -71.5t-71.5 -48.5t-87 -18v0zM233 150l-95 64l-18 -26l121 -82l145 215l-26 18z" />
<glyph unicode="&#xe60f;" d="M232 356q4 3 10 5t13 2t12.5 -1.5t9.5 -5.5q4 -3 6 -8t2 -10q0 -2 -0.5 -5.5t-0.5 -7.5l-7 -188h-39l-12 186q-1 4 -1 6.5v3.5q0 8 1.5 13.5t5.5 9.5v0zM276 60q-4 -5 -9.5 -7t-11.5 -2q-7 0 -12 2t-10 7q-4 4 -6.5 9.5t-2.5 11.5q0 7 2.5 12t6.5 10q4 4 9.5 6.5 t12.5 2.5q6 0 11.5 -2.5t9.5 -6.5q5 -5 7 -10t2 -12q0 -6 -2 -11.5t-7 -9.5v0zM442 -14h-371q-30 0 -51 23t-21 56q0 4 0.5 8t0.5 8l2 5l190 341q9 19 26 30t37 11q21 0 38.5 -12.5t26.5 -32.5l188 -338l2 -10t1 -10q0 -29 -17 -50.5t-43 -26.5l-9 -2v0zM31 73q-1 -2 -1 -4 v-4q0 -20 12 -34t29 -14l375 1q14 3 23.5 16t9.5 31v5t-1 6l-186 333q-6 13 -16 20.5t-21 7.5t-20.5 -6.5t-15.5 -17.5l-188 -340v0z" />
<glyph unicode="&#xe611;" d="M430 441h-359l-71 -156v-278h512v278l-82 156v0zM481 38h-450v240l60 132h320l70 -132v-240v0zM78 320h356l14 -31h-385l15 31v0zM406 380l14 -32h-328l14 32h300v0zM321 196h31q0 -42 -16 -50t-19 -8h-118q-8 0 -15 3t-12 9q-11 12 -11.5 28t0.5 19l31 -3q-1 -5 0 -13 t3 -11q1 0 1.5 -0.5t2.5 -0.5h118q-1 1 1.5 6.5t2.5 20.5v0z" />
<glyph unicode="&#xe613;" d="M323 -32l-256 256l256 256l23 -22l-234 -234l234 -234z" />
<glyph unicode="&#xe615;" d="M256 -17l-212 221q-44 45 -44 109.5t44 110.5q19 20 43.5 30.5t52.5 10.5q27 0 51.5 -10.5t43.5 -30.5l21 -22l21 22q19 20 43.5 30.5t51.5 10.5q28 0 52.5 -10.5t43.5 -30.5q44 -46 44 -110.5t-44 -109.5l-212 -221v0zM140 434q-21 0 -40 -8.5t-34 -23.5 q-35 -36 -35 -88t35 -88l190 -198l190 198q35 36 35 88t-35 88q-30 31 -74 31t-73 -31l-43 -45l-43 45q-15 15 -34 23.5t-39 8.5v0z" />
<glyph unicode="&#xe617;" d="M435 475h-358q-30 0 -51 -24.5t-21 -59.5v-334q0 -34 21 -58.5t51 -24.5h358q29 0 50 24.5t21 58.5v334q1 35 -20 59.5t-51 24.5v0zM336 443q11 0 19 -9t8 -22t-7.5 -22t-19.5 -9q-11 0 -18.5 9t-7.5 22t7.5 22t18.5 9v0zM176 443q11 0 18.5 -9t7.5 -22t-7.5 -22 t-18.5 -9t-19 9t-8 22t7.5 22t19.5 9v0zM471 57q0 -18 -10.5 -30t-25.5 -12h-358q-15 0 -25.5 12.5t-10.5 29.5v292h429v-292h1zM153 254q-7 -7 -17 -12.5t-23 -9.5v-47q8 3 15.5 6t13.5 7q6 3 12 7t12 10v-137h54v209h-49q-4 -10 -7.5 -18t-10.5 -15v0zM382 201 q-8 9 -19 14t-24 5q-4 0 -8 -1l-8 -2t-8 -2.5t-9 -4.5l5 30h79v47h-118l-16 -111l43 -6q3 3 5.5 6t5.5 4q3 2 6.5 3t7.5 1q6 0 10.5 -2t7.5 -6q4 -4 5.5 -11t1.5 -16t-1.5 -15.5t-5.5 -11.5q-3 -4 -7.5 -6.5t-9.5 -2.5t-9 2t-7 5q-3 4 -5 9.5t-3 12.5l-51 -7q2 -7 4.5 -13 t5.5 -11q2 -5 5.5 -9t8.5 -8q4 -4 9.5 -7t12.5 -5q6 -1 13.5 -2.5t16.5 -1.5q12 0 22.5 2.5t17.5 7.5q8 5 14.5 12t10.5 16t6.5 18.5t2.5 19.5q-1 14 -5 25.5t-13 21.5v0z" />
<glyph unicode="&#xe618;" d="M255 480q-53 0 -99.5 -20t-81.5 -55t-55 -81.5t-20 -99.5t20 -99.5t55 -81.5t81.5 -55t99.5 -20t99.5 20t81 55t55 81.5t20.5 99.5t-20.5 99.5t-55 81.5t-81 55t-99.5 20v0zM255 -1q-47 0 -88 18t-71.5 48.5t-48 71.5t-17.5 87q0 47 17.5 87.5t48 71t71.5 48.5t88 18 q46 0 87 -18t71.5 -48.5t48 -71.5t17.5 -87t-17.5 -87t-48 -71.5t-71.5 -48.5t-87 -18v0zM128 240h242v-32h-242v32v0z" />
<glyph unicode="&#xe61a;" d="M32 480h-32v-512h512v32h-480v480zM232 244l72 -74l140 143l42 -42l26 139l-136 -27l46 -47l-118 -120l-72 73l-153 -155l23 -22z" />
<glyph unicode="&#xe61c;" d="M68 244h140v-31h-140v31v0zM472 350l36 62v5q-1 2 -7.5 18.5t-33.5 31.5q-11 7 -22 10t-22 3q-9 0 -14 -1.5t-6 -2.5l-5 -2l-70 -123h-279q-19 0 -32 -16t-13 -34v-293q0 -16 13 -28t32 -12h413q19 0 32.5 13.5t13.5 31.5v292q0 17 -10 29t-26 16v0zM419 449q4 0 12.5 -1 t20.5 -7q11 -7 16.5 -13.5t7.5 -10.5l-148 -261l-63 -44l6 77l148 260v0zM477 13q0 -6 -4.5 -10t-10.5 -4h-413q-6 0 -10 3t-4 6v293q0 7 4.5 13t9.5 6h261l-68 -119l-2 -26h-182v-31h178l-6 -38h-172v-31h168l-4 -26q-1 -2 0 -3.5t2 -2.5q2 -1 3.5 -0.5t2.5 1.5l40 31h183 v31h-144l39 27l6 11h99v31h-81l83 145h7q6 0 10.5 -4t4.5 -11v-292v0z" />
<glyph unicode="&#xe61e;" d="M377 -32h-377l131 253l-131 259h378l134 -253v-12l-3 -6l-132 -241v0zM82 18h266l111 203l-111 209h-267l103 -203v-12l-3 -6l-99 -191v0z" />
<glyph unicode="&#xe620;" d="M257 -27q-52 0 -98 20t-80 54t-53.5 79.5t-19.5 97.5t19.5 98t53.5 80t80 53.5t98 19.5t97.5 -19.5t79.5 -54t54 -80t20 -97.5t-20 -97.5t-54 -79.5t-79.5 -54t-97.5 -20v0zM257 424q-42 0 -78 -15.5t-63.5 -43t-43 -64t-15.5 -77.5t15.5 -77.5t43 -63.5t63.5 -43t78 -16 q41 0 77.5 15.5t63.5 43t43 64t16 77.5t-16 77.5t-43 64t-63.5 43t-77.5 15.5v0zM403 161h-197v198h52v-147h145v-51z" />
<glyph unicode="&#xe621;" d="M490 81l-234 234l-234 -234l-22 23l256 256l256 -256z" />
<glyph unicode="&#xe623;" d="M384 291h58v-58h-58v58v0zM384 105h58v-58h-58v58v0zM384 198h58v-58h-58v58v0zM83 391h58v-58h-58v58v0zM202 391h57v-58h-57v58v0zM83 297h58v-58h-58v58v0zM202 297h57v-58h-57v58v0zM83 203h58v-58h-58v58v0zM202 203h57v-58h-57v58v0zM460 363h-95q-6 0 -11 -1 t-10 -3v69q0 22 -15 37t-36 15h-241q-22 0 -37 -15t-15 -37v-460h132v95h81v-95h299v344q0 21 -15 36t-37 15v0zM313 -1h-69v95h-143v-95h-70v429q0 9 6 15t15 6h241q8 0 14 -6t6 -15v-429v0zM481 -1h-137v313q0 8 6 14t15 6h95q9 0 15 -6t6 -14v-313v0z" />
<glyph unicode="&#xe625;" d="M346 185q2 -4 0.5 0.5t-0.5 -0.5v0v0zM340 200q-2 4 -4.5 7t-6.5 6q-12 11 -27 18.5t-31 13.5q-12 4 -29 11t-22 21q-16 40 31.5 37.5t63.5 -19.5q1 -1 2.5 -1h3.5q1 0 2 1l2 2l16 29q1 2 1 4t-2 4q-12 12 -29 18.5t-33 8.5v35q0 2 -0.5 3t-1.5 2t-2 1.5t-3 0.5h-27 q-3 -1 -4.5 -2.5t-1.5 -4.5v-36q-16 -3 -28.5 -9.5t-22.5 -16.5q-12 -13 -17 -30t-1 -34q1 -4 2 -7l2 -6q16 -36 53.5 -43.5t62.5 -30.5q10 -9 9.5 -22t-12.5 -21q-9 -7 -20.5 -8.5t-22.5 1.5q-13 2 -25 8.5t-23 16.5h-1q-1 1 -2 1.5t-3 0.5q-1 0 -2 -1l-2 -2l-21 -26 q-1 -2 -1 -4.5t2 -4.5q12 -15 33 -24t40 -11v-35q0 -1 0.5 -2.5t1.5 -2.5t2 -1.5t2 -0.5h27q2 0 3 0.5t2 1.5t1.5 2t0.5 3v35q29 5 50 26.5t21 52.5q0 5 -0.5 10t-2.5 9q-1 5 -2.5 8.5t-3.5 6.5v0zM437 405q-36 36 -83 55.5t-98 19.5t-98 -19.5t-83 -55.5 q-38 -37 -56.5 -84.5t-18.5 -96.5t18.5 -96.5t56.5 -84.5q36 -36 83 -55.5t98 -19.5t98 19.5t83 55.5t55.5 83t19.5 98t-19.5 98t-55.5 83v0zM415 65q-32 -32 -73 -49t-86 -17t-86 17t-73 49q-33 33 -49.5 74.5t-16.5 84.5t16.5 84.5t49.5 74.5q32 32 73 49t86 17t86 -17 t73 -49t49 -73t17 -86t-17 -86t-49 -73v0z" />
<glyph unicode="&#xe627;" d="M493 218q9 8 14 19t5 24q0 24 -17 41.5t-42 17.5h-111q0 1 0.5 2.5t0.5 2.5q3 20 4 43t-6 49q-6 25 -26.5 44t-41.5 19q-7 0 -13 -2.5t-10 -6.5q-8 -8 -9 -17.5t-1 -23.5l1 -13q0 -34 -13 -69t-33 -56q-4 -4 -9.5 -6.5t-13.5 -4.5v19h-172v-332h171v40q9 -1 19 -2l20 -2 q11 -1 21 -2.5t19 -1.5q10 -1 20 -1h19v0v0q41 0 73.5 3.5t49.5 7.5q22 6 39 16.5t17 37.5q0 4 -0.5 8t-1.5 7q10 8 15.5 19.5t5.5 24.5q0 4 -0.5 9t-2.5 9q10 8 15.5 19t5.5 24q0 10 -3 18.5t-9 15.5v0zM139 -1h-108v270h108v-270v0zM462 235l-37 -12l35 -17q6 -3 9.5 -9 t3.5 -13t-4 -13.5t-11 -9.5l-19 -7l12 -17q2 -3 3.5 -6.5t1.5 -7.5q0 -8 -4 -14t-11 -9l-18 -7l10 -16q2 -3 3 -6.5t1 -6.5q0 -6 -4 -12t-28 -11q-20 -5 -62 -9t-91 -1q-9 0 -18.5 1.5t-19.5 2.5q-11 1 -22.5 2t-21.5 2v211q16 2 28 7t20 13q24 25 39 65.5t15 81.5v14 q-1 5 -0.5 11t1.5 7q8 0 21 -11.5t17 -28.5q6 -21 4.5 -41t-3.5 -39q-1 -6 -1.5 -12t-1.5 -12l-1 -16h145q12 0 20 -8.5t8 -19.5q0 -9 -5.5 -16t-13.5 -10v0z" />
<glyph unicode="&#xe629;" d="M480 325l-158 155h-198v-81h-85v-431h372v81h69v276v0zM331 427l95 -93h-95v93v0zM380 -1h-310v369h54v-319h256v-50v0zM449 80h-294v369h145v-147h149v-222v0z" />
<glyph unicode="&#xe62b;" d="M512 458l-22 22l-234 -234l-234 234l-22 -22l234 -234l-234 -234l22 -22l234 234l234 -234l22 22l-234 234z" />
<glyph unicode="&#xe62d;" d="M257 480q-53 0 -99.5 -20t-81 -55t-55 -81.5t-20.5 -99.5t20.5 -99.5t55 -81.5t81 -55t99.5 -20t99.5 20t81.5 55t55 81.5t20 99.5t-20 99.5t-55 81.5t-81.5 55t-99.5 20v0zM257 -1q-46 0 -87 18t-71.5 48.5t-48 71.5t-17.5 87t17.5 87t48 71.5t71.5 48.5t87 18 q47 0 88 -18t71.5 -48.5t48 -71.5t17.5 -87t-17.5 -87t-48 -71.5t-71.5 -48.5t-88 -18v0zM338 327l-83 -83l-84 83l-22 -22l84 -83l-84 -84l22 -22l84 84l83 -84l22 22l-83 84l83 83z" />
<glyph unicode="&#xe62f;" d="M426 378q35 -36 52.5 -78t17.5 -92t-17.5 -92t-52.5 -78q-36 -35 -78.5 -52.5t-91.5 -17.5q-50 0 -92 17.5t-78 52.5q-35 36 -52.5 78t-17.5 92q0 40 12 76.5t37 68.5q24 32 55.5 53.5t69.5 32.5v1q-7 2 -10.5 5t-4.5 9q-1 4 0 8t4 8q4 3 8 5.5t10 3.5q2 0 4 0.5t4 0.5 q10 0 15.5 -3.5t7.5 -11.5q2 -5 -0.5 -9.5t-7.5 -8.5v-1.5t1 -0.5q8 1 17 2t18 1q49 0 91.5 -17.5t78.5 -52.5v0zM438 208q0 6 -0.5 12t-1.5 12l-40 6l35 21q-7 22 -18.5 41.5t-27.5 36.5q-27 26 -59.5 39.5t-69.5 13.5q-6 0 -12 -0.5t-12 -1.5l-6 -40l-21 35 q-22 -6 -42 -17.5t-36 -28.5q-27 -27 -40 -59t-13 -70q0 -6 0.5 -12t1.5 -12l40 -6l-35 -21q6 -22 17.5 -41.5t28.5 -36.5q27 -27 59 -40t70 -13q6 0 12 0.5t12 1.5l6 40l21 -35q22 7 41.5 18.5t36.5 27.5q26 27 39.5 59t13.5 70v0zM306 234v-1l60 -2l-54 -25q0 -6 -1 -11.5 t-4 -10.5l23 -24l-32 11q-4 -4 -8 -7t-9 -6l-2 -60l-25 54q-7 1 -13 2t-11 4l-98 -74l74 98v1l-60 2l54 25q0 6 1 11.5t4 10.5l-23 24l32 -11q3 4 7.5 7t9.5 6l2 60l25 -54l12 -2t12 -4l98 74l-74 -98v0zM192 448q2 3 4.5 5t5.5 2q4 1 7 0.5t6 -2.5q3 2 4.5 5t1.5 6 q-1 4 -5 6t-11 2q-2 0 -3.5 -0.5t-2.5 -0.5q-4 0 -7.5 -2t-5.5 -4q-3 -3 -4 -5t0 -4q1 -3 3.5 -5t6.5 -3v0zM216 234q-6 -9 -7.5 -18t0.5 -18q0 -2 1 -4.5t2 -4.5l27 36l36 27q-3 1 -6.5 2t-6.5 2h-3.5h-2.5q-3 0 -5.5 -0.5t-4.5 -0.5q-10 -2 -17.5 -7t-12.5 -14v0zM300 189 q3 7 3.5 14.5t-0.5 14.5q0 2 -1 4t-2 5l-27 -36l-36 -27l6 -2t7 -2h2.5h3.5h4.5t5.5 1q4 1 7.5 2.5t7.5 3.5q6 4 11 9.5t8 12.5v0z" />
<glyph unicode="&#xe630;" d="M321 190q-5 2 -16 5l-11 3q-8 1 -13 5.5t-5 12.5v1v4v5q4 6 7.5 13.5t6.5 16.5q7 4 11.5 10t4.5 13q0 3 -1 6.5t-3 6.5v18q0 23 -16.5 39.5t-39.5 16.5t-39 -16.5t-16 -39.5v-18q-3 -3 -4 -6.5t-1 -6.5q0 -7 4.5 -13t11.5 -10q3 -9 6.5 -16.5t7.5 -13.5v-5v-4v-1 q0 -8 -5 -12.5t-13 -5.5l-11 -3t-16 -5q-15 -3 -25.5 -16.5t-10.5 -30.5h222q0 17 -10 30.5t-26 16.5v0zM489 -32h-398q-28 0 -48 20t-20 47v380q0 27 20 47t48 20h343v-86h55v-428v0zM91 451q-15 0 -25.5 -10.5t-10.5 -25.5v-380q0 -15 10.5 -25.5t25.5 -10.5h366v366h-23 v-340h-332q-6 0 -10.5 4.5t-4.5 11.5q0 6 4.5 10.5t10.5 4.5h301v395h-312v0z" />
<glyph unicode="&#xe632;" d="M275 480h-225v-512h412v327l-187 185v0zM284 427l125 -123h-125v123v0zM81 -1v450h172v-176h178v-274h-350v0z" />
<glyph unicode="&#xe634;" d="M480 152v-152h-448v152h-32v-185h512v185h-32zM256 64l83 123h-67v276h-32v-276h-67z" />
<glyph unicode="&#xe636;" d="M9 480h70v-70h-70v70v0zM150 480h70v-70h-70v70v0zM292 480h70v-70h-70v70v0zM433 480h70v-70h-70v70v0zM9 333h70v-71h-70v71v0zM150 333h70v-71h-70v71v0zM292 333h70v-71h-70v71v0zM433 333h70v-71h-70v71v0zM9 186h70v-71h-70v71v0zM150 186h70v-71h-70v71v0z M292 186h70v-71h-70v71v0zM433 186h70v-71h-70v71v0zM9 38h70v-70h-70v70v0zM150 38h70v-70h-70v70v0zM292 38h70v-70h-70v70v0zM433 38h70v-70h-70v70v0z" />
<glyph unicode="&#xe638;" d="M479 434q-23 24 -43 30t-29 6l-10 -1l-307 -299l-89 -188q-1 -2 -1 -4.5t2 -4.5q2 -1 4 -1.5t5 0.5l187 78v0l313 302v5q1 3 -1.5 25.5t-30.5 51.5v0zM184 78l-111 -38l41 110l297 288q6 -1 18 -5.5t27 -20.5q15 -15 19.5 -27.5t4.5 -18.5l-296 -288v0z" />
<glyph unicode="&#xe63a;" d="M256 74l-256 256l22 23l234 -234l234 234l22 -23z" />
<glyph unicode="&#xe63c;" d="M0 480v-512h182v32h-150v448h448v-448h-151v-32h183v512h-512zM339 261l-83 122l-83 -122h67v-291h32v291h67z" />
<glyph unicode="&#xe63e;" d="M398 -29l-124 110h-185q-37 0 -63 26.5t-26 64.5v214q0 38 26 64.5t63 26.5h334q37 0 63 -26.5t26 -64.5v-214q0 -38 -26 -64.5t-63 -26.5h-25v-110v0zM89 446q-24 0 -41 -17.5t-17 -42.5v-214q0 -25 17 -42.5t41 -17.5h197l81 -72v72h56q24 0 41 17.5t17 42.5v214 q0 25 -17 42.5t-41 17.5h-334v0z" />
<glyph unicode="&#xe640;" d="M0 463l198 -283v-207h116v207l198 283h-512v0zM283 190v-186h-54v186l-170 242h394l-170 -242v0z" />
<glyph unicode="&#xe642;" d="M147 -32l-23 22l234 234l-234 234l23 22l256 -256z" />
<glyph unicode="&#xe644;" d="M307 249l63 63l-257 156q-6 2 -11 4t-11 2q-2 0 -4 -0.5t-4 -0.5l224 -224v0zM402 155l41 25q11 7 17 17.5t8 24.5v4q-2 14 -8 25t-17 17l-40 24l-70 -69l69 -68v0zM307 196l-222 -221q2 -1 3.5 -1h2.5q6 0 11 1.5t11 4.5l255 155l-61 61v0zM52 451q-4 -5 -6 -12t-2 -14 v0v-402q0 -8 2.5 -15t6.5 -13l227 228l-228 228v0z" />
<glyph unicode="&#xe645;" d="M377 54q-8 42 -37.5 57t-64.5 30l-3 1q-12 2 -15 8t-2 18q6 9 10.5 20t9.5 24q19 13 27 33.5t-4 41.5v26q0 44 -32 75.5t-76 31.5t-76 -31.5t-32 -75.5v-26q-12 -21 -4 -41.5t26 -33.5q5 -13 10 -24t11 -20q0 -13 -3.5 -19t-16.5 -8q-35 -14 -65 -29t-38 -58l-2 -85h379 l-2 85v0zM31 0v38q1 16 10 31.5t23 23.5q5 3 24.5 11.5t24.5 6.5q26 5 35 22t8 41v4l-3 4q-6 8 -11 19.5t-10 26.5l-2 5l-5 2q-9 7 -15.5 17t0.5 21l3 4v36q0 74 76.5 74t76.5 -74v-36l3 -4q8 -11 1.5 -21t-16.5 -17l-4 -2l-2 -5q-5 -15 -10 -26.5t-12 -19.5l-2 -4v-4 q-2 -24 7 -41t34 -22q28 -11 54.5 -23.5t27.5 -49.5l1 -38h-317v0zM401 164q5 8 9 17t7 18q16 11 22.5 29t-3.5 35v21q0 47 -36.5 71t-78.5 20l6 -32q29 3 53.5 -11.5t24.5 -47.5v-30l3 -4q6 -8 0.5 -15.5t-12.5 -11.5l-4 -3l-2 -5l-8 -20t-9 -17l-3 -4v-4q-1 -20 6.5 -35 t29.5 -19q11 -3 24.5 -5.5t22.5 -10.5q13 -10 20.5 -28t7.5 -34v-38h-69v-31h100v69q0 26 -16.5 58.5t-45.5 39.5q-7 2 -28.5 6.5t-20.5 21.5v0z" />
<glyph unicode="&#xe647;" d="M247 144q-8 0 -14.5 -2t-10.5 -6t-6.5 -10t-2.5 -14t2.5 -14t6.5 -10q4 -5 10.5 -7t14.5 -2t14 2.5t11 6.5q4 4 6 10t2 14t-2 14t-6 10q-5 4 -11 6t-14 2v0zM258 369q-24 0 -46.5 -6t-43.5 -18l20 -42q19 9 35.5 14t30.5 5q8 0 14.5 -2t11.5 -5q4 -3 6.5 -8t2.5 -11 q0 -5 -1.5 -10t-4.5 -10q-4 -4 -10.5 -10t-16.5 -13q-10 -8 -17.5 -15.5t-11.5 -13.5q-4 -7 -6 -15t-2 -17v-15h51v12q0 6 1.5 10.5t3.5 8.5q3 3 8.5 8t14.5 12q14 10 23 18.5t14 16.5q5 7 7 16.5t2 19.5q0 16 -5.5 28.5t-17.5 22.5q-12 9 -27.5 14t-35.5 5v0zM437 405 q-36 36 -83 55.5t-98 19.5t-98 -19.5t-83 -55.5t-55.5 -83t-19.5 -98t19.5 -98t55.5 -83t83 -55.5t98 -19.5t98 19.5t83 55.5t55.5 83t19.5 98t-19.5 98t-55.5 83v0zM415 65q-32 -32 -73 -49t-86 -17t-86 17t-73 49t-49 73t-17 86t17 86t49 73t73 49t86 17t86 -17t73 -49 t49 -73t17 -86t-17 -86t-49 -73v0z" />
<glyph unicode="&#xe649;" d="M286 192q6 6 50 67t55 74l-1 1q-11 -8 -74 -52t-70 -50q-8 -8 -8 -20t8 -20q9 -8 20.5 -8t19.5 8v0zM287 449q-43 0 -81 -15t-68 -41.5t-49.5 -62.5t-24.5 -77h-64l78 -116l78 116h-60q11 69 64.5 116.5t126.5 47.5q40 0 75 -15t61.5 -41.5t41.5 -61.5t15 -75t-15 -75 t-41.5 -61.5t-61.5 -41.5t-75 -15q-35 0 -68 12.5t-60 35.5l-21 -24q31 -27 69.5 -41.5t79.5 -14.5q47 0 87.5 17.5t71.5 48.5t48.5 71.5t17.5 87.5t-17.5 87.5t-48.5 71.5t-71.5 48.5t-87.5 17.5v0z" />
<glyph unicode="&#xe64b;" d="M439 -32h-143v157h-80v-157h-143v196h-73l256 315l256 -315h-73v-196v0zM327 -1h81v197h39l-191 234l-190 -234h38v-197h81v157h142v-157v0z" />
<glyph unicode="&#xe64d;" d="M330 480v-32h150v-448h-448v448h151v32h-183v-512h512v512h-182zM173 187l83 -122l83 122h-67v291h-32v-291h-67z" />
<glyph unicode="&#xe64f;" d="M255 -32q-51 0 -98 19.5t-83 55.5q-37 36 -56 83t-19 98t19 98t56 83q36 36 82.5 55.5t98.5 19.5q51 0 97.5 -19.5t83.5 -55.5q37 -37 56 -84.5t19 -96.5t-19 -96.5t-56 -84.5q-36 -36 -83 -55.5t-98 -19.5v0zM255 449q-45 0 -86 -17t-73 -49t-49 -73t-17 -86t17 -86 t49 -73t73 -49t86 -17t86 17t73 49q33 33 49 74.5t16 84.5t-16 84.5t-49 74.5q-32 32 -73 49t-86 17v0zM232 377q4 4 10 5.5t13 1.5t12.5 -1.5t9.5 -5.5q4 -3 6.5 -8t2.5 -11q0 -2 -0.5 -5t-1.5 -8l-7 -193h-40l-12 192q-1 4 -1 6.5v3.5q0 8 2 13.5t6 9.5v0zM277 73 q-5 -5 -10.5 -7t-11.5 -2q-7 0 -12.5 2t-9.5 7q-5 4 -7.5 10t-2.5 12q0 7 2.5 12.5t6.5 9.5q5 5 10.5 7t12.5 2q6 0 11.5 -2t10.5 -7q5 -4 7 -9.5t2 -12.5q0 -6 -2.5 -12t-6.5 -10v0z" />
<glyph unicode="&#xe651;" d="M97 -32l28 185l-124 130l173 29l82 168l82 -168l173 -29l-124 -130l28 -185l-159 85l-159 -85v0zM256 86l121 -65l-21 141l96 101l-134 23l-62 127l-62 -127l-134 -23l96 -101l-21 -141l121 65v0z" />
<glyph unicode="&#xe653;" d="M178 451h334v-33h-334v33v0zM178 257h334v-33h-334v33v0zM178 63h334v-34h-334v34v0zM0 451h100v-33h-100v33v0zM0 257h100v-33h-100v33v0zM0 63h100v-34h-100v34v0z" />
<glyph unicode="&#xe655;" d="M373 272v91q0 48 -34 82.5t-83 34.5t-83 -34.5t-34 -82.5v-91h-80v-304h394v304h-80v0zM170 363q0 35 25 60.5t61 25.5t61 -25.5t25 -60.5v-91h-172v91v0zM422 -1h-332v241h332v-241v0z" />
<glyph unicode="&#xe657;" d="M385 288h-258v32h258v-32v0zM385 240h-258v-32h258v32v0zM385 160h-258v-32h258v32v0zM462 480v-512h-412v512h412v0zM431 449h-350v-450h350v450v0z" />
<glyph unicode="&#xe659;" d="M429 375q-20 20 -44 34.5t-51 23.5l-10 -30q24 -8 44.5 -20.5t38.5 -30.5q29 -29 44.5 -67t15.5 -79t-15.5 -79t-44.5 -67q-30 -30 -68.5 -45t-78 -15t-77.5 15t-68 45t-45.5 68.5t-15.5 78t15.5 77.5t45.5 68q17 18 38 30.5t45 20.5l-10 30q-27 -9 -51.5 -23.5 t-44.5 -34.5q-35 -35 -52 -79t-17 -90t17 -89.5t52 -78.5t79 -52.5t90 -17.5t89.5 17.5t78.5 52.5q34 33 52 76.5t18 91.5t-18 91.5t-52 77.5v0zM245 480h32v-256h-32v256v0z" />
<glyph unicode="&#xe65b;" d="M0 439h512v-33h-512v33v0zM0 245h512v-33h-512v33v0zM0 51h512v-34h-512v34v0z" />
<glyph unicode="&#xe65d;" d="M457 429h-402q-23 0 -39 -16t-16 -38v-302q0 -22 16 -38t39 -16h402q23 0 39 16t16 38v302q0 22 -16 38t-39 16v0zM55 397h402q10 0 16.5 -6.5t6.5 -15.5v-128h-134l-17 -69l-58 204l-71 -171l-41 112l-38 -89h-89v141q0 9 6.5 15.5t16.5 6.5v0zM457 51h-402 q-10 0 -16.5 6.5t-6.5 15.5v129h110l14 34l42 -113l67 163l67 -232l39 161h109v-142q0 -9 -6.5 -15.5t-16.5 -6.5v0z" />
<glyph unicode="&#xe65f;" d="M65 285q-27 0 -46 -19t-19 -46t19 -46t46 -19t46 19t19 46t-19 46t-46 19v0zM65 186q-14 0 -24 10t-10 24t10 24t24 10t24 -10t10 -24t-10 -24t-24 -10v0zM256 285q-27 0 -46 -19t-19 -46t19 -46t46 -19t46 19t19 46t-19 46t-46 19v0zM256 186q-14 0 -24 10t-10 24t10 24 t24 10t24 -10t10 -24t-10 -24t-24 -10v0zM447 285q-27 0 -46 -19t-19 -46t19 -46t46 -19t46 19t19 46t-19 46t-46 19v0zM447 186q-14 0 -24 10t-10 24t10 24t24 10t24 -10t10 -24t-10 -24t-24 -10v0z" />
<glyph unicode="&#xe661;" d="M433 461h-285q-32 0 -55.5 -23t-23.5 -56v-57q-29 -4 -49 -26t-20 -52v-181q0 -53 27 -66t52 -13h354q33 0 56 23t23 56v316q0 33 -23 56t-56 23v0zM69 66q1 -7 -1.5 -20t-9.5 -18q-2 -2 -6 -2t-10 2q-5 5 -8 14t-3 24v181q0 17 11 30t27 16v-227v0zM481 66 q0 -20 -14 -34t-34 -14h-343q8 15 9.5 30.5t1.5 17.5v316q0 20 14 34t33 14h285q20 0 34 -14t14 -34v-316v0zM138 335h309v-31h-309v31v0zM138 264h309v-32h-309v32v0zM138 192h309v-31h-309v31v0zM138 120h309v-31h-309v31v0z" />
<glyph unicode="&#xe663;" d="M437 405q-36 36 -83 55.5t-98 19.5t-98 -19.5t-83 -55.5q-37 -37 -56 -84.5t-19 -96.5t19 -96.5t56 -84.5q36 -36 83 -55.5t98 -19.5t98 19.5t83 55.5t55.5 83t19.5 98t-19.5 98t-55.5 83v0zM97 383q32 32 73 49t86 17q41 0 79 -14.5t68 -41.5l-316 -316q-29 33 -43 73 t-12.5 81.5t18 80.5t47.5 71v0zM415 65q-32 -32 -73 -49t-86 -17q-41 0 -79 14.5t-68 40.5l316 317q27 -30 41.5 -68t14.5 -79q0 -45 -17 -86t-49 -73v0z" />
<glyph unicode="&#xe665;" d="M256 -29q-34 0 -59.5 20.5t-30.5 51.5h-118q-11 3 -27 13.5t-19 31.5l-2 11l9 5q29 16 49 49.5t32.5 68t18 60t5.5 26.5q5 25 18.5 69t62.5 59q2 6 5 13.5t10 14.5q8 8 19 12t25 4q16 0 27.5 -4t19.5 -12q7 -7 10 -14.5t5 -13.5q49 -15 58.5 -40.5t22.5 -90.5v0 l4.5 -24.5t16.5 -57.5t32.5 -67t51.5 -52l9 -5l-1 -11q-4 -21 -20 -31.5t-27 -13.5h-3h-115q-5 -31 -30 -51.5t-59 -20.5v0zM53 74h145l-1 -16q0 -24 17 -40t42 -16q24 0 41.5 15.5t17.5 37.5l-1 17l16 2h128q2 1 7.5 3.5t9.5 6.5q-33 24 -54 60t-33 70.5t-17 60.5t-5 28 q-7 31 -11.5 63t-56.5 42l-12 3v12q0 7 -5 16.5t-24 9.5h-3q-19 0 -24 -9t-5 -14l-1 -16l-11 -2q-52 -10 -57.5 -46.5t-10.5 -55.5q0 -4 -6 -31t-18.5 -62t-33 -71t-51.5 -58q4 -4 9.5 -6.5t7.5 -3.5v0z" />
<glyph unicode="&#xe667;" d="M512 295q0 35 -25 59.5t-60 24.5h-54v32q0 27 -19.5 46.5t-46.5 19.5h-102q-27 0 -46.5 -19.5t-19.5 -46.5v-32h-54q-35 0 -60 -24.5t-25 -59.5v-240q0 -35 25 -59.5t60 -24.5h342q35 0 60 24.5t25 59.5v240v0zM171 410q0 15 10 25t24 10h102q14 0 24 -10t10 -24v-32 h-170v31v0zM32 295q0 22 15.5 37t37.5 15h342q22 0 37.5 -15t15.5 -37v-72q-14 -9 -33 -16.5t-42 -13.5q-25 -6 -54.5 -10t-59.5 -6h-5q-4 10 -12 16.5t-18 6.5t-18 -6.5t-12 -16.5h-4q-44 2 -83.5 9.5t-69.5 18.5q-11 4 -20 8.5t-17 9.5v72v0zM480 55q0 -21 -15.5 -36.5 t-37.5 -15.5h-342q-22 0 -37.5 15.5t-15.5 36.5v131q6 -3 12.5 -5.5t12.5 -5.5q33 -12 75 -20t89 -10h5q4 -10 12 -16.5t18 -6.5t18 6.5t12 16.5h6q32 2 63 6t58 11q19 5 36 11t31 13v-131v0z" />
<glyph unicode="&#xe669;" d="M198 432h98v-33h-98v33v0zM198 240h98v-32h-98v32v0zM198 49h98v-33h-98v33v0z" />
<glyph unicode="&#xe66b;" d="M256 480q-53 0 -99.5 -20t-81.5 -55t-55 -81.5t-20 -99.5t20 -99.5t55 -81.5t81.5 -55t99.5 -20t99.5 20t81.5 55t55 81.5t20 99.5t-20 99.5t-55 81.5t-81.5 55t-99.5 20v0zM256 449q44 0 83.5 -16.5t70 -44.5t49 -66.5t21.5 -81.5h-448q3 43 21.5 81.5t49 66.5t70 44.5 t83.5 16.5v0zM256 -1q-44 0 -83.5 16.5t-70 44.5t-49 66.5t-21.5 81.5h448q-3 -43 -21.5 -81.5t-49 -66.5t-69.5 -44.5t-84 -16.5v0z" />
<glyph unicode="&#xe66d;" d="M414 412v-31q7 0 13.5 -5t6.5 -10l-1 -352q0 -6 -4 -10.5t-10 -4.5h-326q-6 0 -10.5 4.5t-4.5 10.5v352q0 5 6.5 10t11.5 5v31q-17 0 -33 -13.5t-16 -32.5v-352q0 -19 13.5 -32.5t32.5 -13.5h326q19 0 32.5 13.5t13.5 32.5v352q0 20 -16.5 33t-34.5 13v0zM155 342h202 q14 0 24 10t10 24v35h-17q-14 0 -39 10.5t-30 23.5q-5 15 -18.5 25t-30.5 10t-30.5 -10t-18.5 -25q-5 -13 -30 -23.5t-39 -10.5h-17v-35q0 -14 10 -24t24 -10v0zM256 454q9 0 15.5 -6.5t6.5 -15.5q0 -8 -6.5 -14.5t-15.5 -6.5t-15.5 6.5t-6.5 14.5q0 9 6.5 15.5t15.5 6.5v0z " />
<glyph unicode="&#xe66f;" d="M256 480q-53 0 -99.5 -20t-81.5 -55t-55 -81.5t-20 -99.5t20 -99.5t55 -81.5t81.5 -55t99.5 -20t99.5 20t81.5 55t55 81.5t20 99.5t-20 99.5t-55 81.5t-81.5 55t-99.5 20v0zM256 -1q-46 0 -87 18t-71.5 48.5t-48.5 71.5t-18 87t18 87t48.5 71.5t71.5 48.5t87 18t87 -18 t71.5 -48.5t48.5 -71.5t18 -87t-18 -87t-48.5 -71.5t-71.5 -48.5t-87 -18v0zM245 368h-31v-200h198v31h-167v169z" />
<glyph unicode="&#xe671;" d="M472 350h-432q-16 0 -28 -12t-12 -28v-194q0 -17 12 -28.5t28 -11.5h49v-46q0 -17 12 -29t28 -12h246q16 0 28 12t12 29v46h57q16 0 28 11.5t12 28.5v194q0 16 -12 28t-28 12v0zM384 30q0 -4 -2.5 -7t-6.5 -3h-246q-4 0 -6.5 3t-2.5 7v129h264v-129v0zM481 116 q0 -4 -3 -6.5t-6 -2.5h-57v83h-326v-83h-49q-3 0 -6 2.5t-3 6.5v194q0 4 3 6.5t6 2.5h432q3 0 6 -2.5t3 -6.5v-30.5v-66.5v-66.5v-30.5v0zM104 447h302v-63h-302v63v0z" />
<glyph unicode="&#xe673;" d="M512 -32h-512v16q0 41 26 74.5t65 42.5q11 3 34 9l23 6q21 4 24.5 12t3.5 13v8.5v7.5q-8 12 -14.5 27t-13.5 32q-18 13 -27.5 28.5t-9.5 32.5q0 9 2.5 17t6.5 16v35q0 56 40 95.5t96 39.5t96 -39.5t40 -95.5v-35q4 -8 6.5 -16t2.5 -17q0 -17 -9.5 -32.5t-27.5 -28.5 q-7 -17 -13.5 -32t-14.5 -27v-6.5v-7.5q0 -6 3 -14t23 -12q1 0 24.5 -6.5t34.5 -9.5q39 -9 65 -42.5t26 -74.5v-16v0zM33 -1h446q-4 26 -22 46t-43 26q-11 2 -35 8.5l-24 6.5q-33 7 -42 24.5t-9 30.5q0 7 0.5 12t0.5 10v4l3 4q8 12 14.5 27t13.5 34l2 5l5 3q7 5 17 14.5 t10 22.5q0 5 -1.5 9.5t-5.5 9.5l-2 4v45q0 43 -31 73.5t-74 30.5t-74 -30.5t-31 -73.5v-45l-2 -4q-4 -5 -5.5 -9.5t-1.5 -9.5q0 -13 10 -22.5t17 -14.5l5 -3l2 -5q7 -19 13.5 -34t14.5 -27l3 -4v-4q0 -5 0.5 -10t0.5 -10q0 -14 -9.5 -32t-43.5 -25l-23 -6.5t-34 -8.5 q-25 -6 -43 -26t-22 -46v0z" />
<glyph unicode="&#xe675;" d="M454 439h-162q2 8 7.5 15t14.5 10l13 4v12h-142v-12l13 -4q9 -3 14.5 -10t7.5 -15h-162q-22 0 -37.5 -15.5t-15.5 -37.5v-366q0 -21 15.5 -36.5t37.5 -15.5h396q22 0 37.5 15.5t15.5 36.5v366q0 22 -15.5 37.5t-37.5 15.5v0zM475 20q0 -8 -6.5 -14t-14.5 -6h-396 q-8 0 -14.5 6t-6.5 14v366q0 9 6.5 15t14.5 6h396q8 0 14.5 -6t6.5 -15v-366v0zM256 367q-68 0 -116 -48t-48 -116q0 -67 48 -115.5t116 -48.5t116 48.5t48 115.5q0 68 -48 116t-116 48v0zM256 72q-54 0 -93 38.5t-39 92.5q0 55 39 93.5t93 38.5q55 0 93.5 -38.5t38.5 -93.5 q0 -54 -38.5 -92.5t-93.5 -38.5v0zM265 203h-98v-32h130v128h-32v-96z" />
<glyph unicode="&#xe677;" d="M437 405q-36 36 -83 55.5t-98 19.5t-98 -19.5t-83 -55.5q-37 -37 -56 -84.5t-19 -96.5t19 -96.5t56 -84.5q36 -36 83 -55.5t98 -19.5t98 19.5t83 55.5q37 37 56 84.5t19 96.5t-19 96.5t-56 84.5v0zM415 65q-32 -32 -73 -49t-86 -17t-86 17t-73 49q-33 33 -49.5 74.5 t-16.5 84.5t16.5 84.5t49.5 74.5q32 32 73 49t86 17t86 -17t73 -49q33 -33 49.5 -74.5t16.5 -84.5t-16.5 -84.5t-49.5 -74.5v0zM402 224q0 -61 -42.5 -103.5t-103.5 -42.5t-103.5 42.5t-42.5 103.5t42.5 103.5t103.5 42.5t103.5 -42.5t42.5 -103.5v0z" />
<glyph unicode="&#xe678;" d="M256 -32q-51 0 -98 19.5t-83 55.5q-37 37 -56 84.5t-19 96.5t19 96.5t56 84.5q36 36 83 55.5t98 19.5t98 -19.5t83 -55.5q37 -37 56 -84.5t19 -96.5t-19 -96.5t-56 -84.5q-36 -36 -83 -55.5t-98 -19.5v0zM256 449q-45 0 -86 -17t-73 -49q-33 -33 -49.5 -74.5t-16.5 -84.5 t16.5 -84.5t49.5 -74.5q32 -32 73 -49t86 -17t86 17t73 49q33 33 49.5 74.5t16.5 84.5t-16.5 84.5t-49.5 74.5q-32 32 -73 49t-86 17v0z" />
<glyph unicode="&#xe67b;" d="M437 405q-36 36 -83 55.5t-98 19.5t-98 -19.5t-83 -55.5t-55.5 -83t-19.5 -98t19.5 -98t55.5 -83t83 -55.5t98 -19.5t98 19.5t83 55.5t55.5 83t19.5 98t-19.5 98t-55.5 83v0zM468 299h-156l-48 149q42 -1 81 -18t70 -47q18 -18 31.5 -39.5t21.5 -44.5v0zM344 100l-88 64 l-88 -64l34 104l-88 63h108l34 104l34 -104h108l-88 -63l34 -104v0zM97 383q31 30 70 47t81 18l-48 -149h-156q8 23 21.5 44.5t31.5 39.5v0zM31 224q0 15 2 30t6 29l126 -91l-47 -145q-5 4 -10.5 8.5t-10.5 9.5q-32 32 -49 73t-17 86v0zM133 36l123 90l123 -90 q-27 -18 -58.5 -27.5t-64.5 -9.5t-64.5 9.5t-58.5 27.5v0zM415 65q-5 -5 -10 -9.5t-11 -8.5l-47 145l126 91q4 -14 6 -29t2 -30q0 -45 -17 -86t-49 -73v0z" />
<glyph unicode="&#xe67d;" d="M449 193q0 -40 -15 -75t-41.5 -61.5t-61.5 -41.5t-75 -15t-75 15t-61.5 41.5t-41.5 61.5t-15 75q0 74 49.5 128.5t121.5 63.5v-61l116 78l-116 78v-63q-43 -5 -80 -24t-64 -49t-43 -68.5t-16 -82.5q0 -47 18 -88t48.5 -71.5t71 -48t87.5 -17.5q46 0 87 17.5t71.5 48 t48.5 71.5t18 88h-32v0z" />
<glyph unicode="&#xe67f;" d="M510 70q0 1 -6 40t-31 85.5t-76.5 86t-143.5 40.5v116l-253 -185l252 -189l-2 113h4.5h5.5q39 0 103.5 -20.5t118.5 -96.5l30 -43l-2 53v0zM260 208q-13 0 -20.5 -1t-8.5 -1l-13 -2l2 -77l-168 126l170 124v-86h25q115 0 162.5 -59.5t60.5 -109.5q-59 58 -119.5 72 t-90.5 14v0z" />
<glyph unicode="&#xe681;" d="M433 395v85h-341q-28 0 -48 -19.5t-20 -47.5v-378q0 -28 20 -47.5t48 -19.5h396v427h-55v0zM456 -1h-364q-15 0 -25.5 10.5t-10.5 25.5v378q0 15 10.5 25.5t25.5 10.5h310v-393h-299q-7 0 -11.5 -4.5t-4.5 -11.5q0 -6 4.5 -10.5t11.5 -4.5h330v339h23v-365v0zM119 248 l0.5 0.5t1.5 0.5l46 -31v-3v-3q3 -12 13 -19t22 -4q12 2 19 12.5t4 22.5q0 2 -1.5 4.5t-2.5 4.5l41 83l4 2l4 2l45 -26q0 -2 -0.5 -3.5t0.5 -2.5q2 -12 12.5 -19t22.5 -4q12 2 18.5 12t4.5 22q-3 12 -13 19t-22 4q-2 0 -3.5 -0.5t-2.5 -1.5l-50 29v0.5v0.5q-3 12 -13 18.5 t-22 4.5t-19 -12.5t-4 -22.5q1 -4 3 -7l4 -6l-38 -78h-1.5h-1.5q-1 -1 -2.5 -1.5t-3.5 -1.5l-42 28v5.5v5.5q-3 12 -13 18.5t-22 4.5q-12 -3 -19 -13t-4 -22q2 -12 12.5 -19t22.5 -4v0z" />
<glyph unicode="&#xe683;" d="M487 391q-17 17 -32 21.5t-21 4.5l-9 -1l-78 -76l-131 129h-216v-490h396v238l115 110l1 5q0 3 -2 20t-23 39v0zM225 419l100 -100l-19 -18h-81v118v0zM366 9h-336v430h165v-168h80l-63 -62h-153v-30h137l-14 -37h-123v-30h111l-18 -48l134 47l1 1h50v30h-19l48 46v-179 v0zM273 138l-71 -24l27 70l208 203q5 -1 12.5 -4.5t16.5 -12.5t12 -17t4 -12l-209 -203v0z" />
<glyph unicode="&#xe684;" d="M422 411v-31h17v-381h-291v19h-31v-50h353v443h-48zM395 480h-353v-443h353v443v0zM364 68h-291v381h291v-381v0zM111 413h216v-31h-216v31v0zM111 350h216v-31h-216v31v0zM111 287h216v-31h-216v31v0zM295 196q-1 -1 -2 -1.5t-2 -0.5l-35 20v1v0q-2 8 -9 13t-15 3 q-9 -2 -13.5 -9t-2.5 -15q0 -3 1.5 -5.5t3.5 -4.5l-27 -54h-0.5h-1.5q-1 -1 -2 -1.5t-2 -0.5l-30 20q1 1 1 3t-1 4q-1 8 -8.5 13t-15.5 3t-13 -9t-3 -15q1 -9 8.5 -13.5t15.5 -2.5h1h1l32 -21v-2.5v-2.5q2 -8 9 -12.5t15 -3.5q9 2 13.5 9t3.5 16q-1 1 -1.5 3t-1.5 3l28 58 q2 1 3.5 1.5t2.5 1.5l31 -18v-2.5v-2.5q2 -8 9 -13t15 -3q9 2 13.5 9t3.5 16q-2 8 -9 12.5t-16 3.5v0z" />
<glyph unicode="&#xe687;" d="M272 417v63l-115 -78l115 -78v61q74 -6 125.5 -61t51.5 -131q0 -40 -15 -75t-41.5 -61.5t-61.5 -41.5t-75 -15t-75 15t-61.5 41.5t-41.5 61.5t-15 75q0 35 12.5 68t35.5 60l-23 21q-28 -31 -42.5 -69.5t-14.5 -79.5q0 -47 18 -88t48.5 -71.5t71.5 -48t87 -17.5 q47 0 87.5 17.5t71 48t48.5 71.5t18 88q0 44 -16.5 83.5t-44.5 69.5t-66 49t-82 22v0z" />
<glyph unicode="&#xe689;" d="M423 319h-276v85l-147 -100l147 -100v84h276q24 0 41 -17.5t17 -43.5v-68q0 -25 -17 -43t-41 -18h-402v-31h402q37 0 63 27t26 65v68q0 39 -26 65.5t-63 26.5v0z" />
<glyph unicode="&#xe68b;" d="M459 480h-406q-22 0 -37.5 -15.5t-15.5 -37.5v-406q0 -22 15.5 -37.5t37.5 -15.5h406q22 0 37.5 15.5t15.5 37.5v406q0 22 -15.5 37.5t-37.5 15.5v0zM481 21q0 -9 -6.5 -15.5t-15.5 -6.5h-406q-9 0 -15.5 6.5t-6.5 15.5v406q0 9 6.5 15.5t15.5 6.5h406q9 0 15.5 -6.5 t6.5 -15.5v-406v0zM272 383h-32v-211h-65l81 -119l81 119h-65v211z" />
<glyph unicode="&#xe68d;" d="M459 480h-406q-22 0 -37.5 -15.5t-15.5 -37.5v-406q0 -22 15.5 -37.5t37.5 -15.5h406q22 0 37.5 15.5t15.5 37.5v406q0 22 -15.5 37.5t-37.5 15.5v0zM481 21q0 -9 -6.5 -15.5t-15.5 -6.5h-406q-9 0 -15.5 6.5t-6.5 15.5v272h450v-272v0zM481 324h-450v103q0 9 6.5 15.5 t15.5 6.5h406q9 0 15.5 -6.5t6.5 -15.5v-103v0zM217 390q0 -13 -9 -22t-22 -9t-21.5 9t-8.5 22q0 12 8.5 21t21.5 9t22 -9t9 -21v0zM356 390q0 -13 -8.5 -22t-21.5 -9t-21.5 9t-8.5 22q0 12 8.5 21t21.5 9t21.5 -9t8.5 -21v0zM91 253h63v-220h-63v220v0zM225 253h62v-220 h-62v220v0zM358 253h63v-220h-63v220v0z" />
<glyph unicode="&#xe68f;" d="M508 -9l-169 170q23 25 36.5 58t13.5 70q0 80 -56.5 136t-136.5 56q-79 0 -135.5 -56t-56.5 -136q0 -79 56.5 -135.5t135.5 -56.5q34 0 64.5 11t55.5 31l170 -170l22 22v0zM35 289q0 67 47.5 114t113.5 47q67 0 114 -47t47 -114q0 -66 -47 -113.5t-114 -47.5 q-66 0 -113.5 47.5t-47.5 113.5v0z" />
<glyph unicode="&#xe691;" d="M450 398q-49 0 -117 38t-69 39l-8 5l-9 -6q-1 0 -67 -38t-118 -38h-15v-124q0 -76 30.5 -132.5t67.5 -94t69 -56t35 -20.5l7 -3l7 3q3 2 35 20.5t69 56t67.5 94t30.5 132.5v123l-15 1v0zM434 274q0 -61 -23 -109t-53.5 -81.5t-60 -54t-41.5 -26.5q-12 6 -41.5 26.5 t-60 54t-53.5 81.5t-23 109v94q49 5 103.5 33.5t74.5 41.5q21 -12 75.5 -40.5t102.5 -34.5v-94v0z" />
<glyph unicode="&#xe693;" d="M230 2l-230 156l18 27l204 -138l263 392l27 -18z" />
<glyph unicode="&#xe695;" d="M0 480v-512h512v512h-512v0zM481 -1h-450v450h450v-450v0z" />
<glyph unicode="&#xe696;" d="M436 350l-26 17l-177 -263l-135 91l-17 -25l160 -109zM0 480v-512h512v512h-512v0zM481 -1h-450v450h450v-450v0z" />
<glyph unicode="&#xe698;" d="M291 -32h-70q-4 0 -8.5 1.5t-8.5 4.5t-6.5 7.5t-2.5 10.5l-8 47l-6 2t-6 3l-37 -28q-6 -6 -17 -6t-19 8q-20 18 -33 31.5t-20 23.5q-3 3 -4 7t-1 9q0 4 1.5 8t3.5 8q3 4 7 9t10 13q3 4 5.5 7.5t5.5 6.5q-2 3 -3.5 7t-3.5 8l-48 7q-5 1 -9 3.5t-7 6.5t-4.5 8t-1.5 9v69 q0 5 1.5 9t3.5 8q4 5 8.5 7t7.5 3l50 7q1 4 2.5 7t2.5 7q-5 7 -12 16t-15 18q-4 5 -5.5 10t-1.5 8q0 4 1.5 8t4.5 8q5 6 13 15t20 21q17 17 25.5 22t14.5 5q5 0 9.5 -1.5t8.5 -5.5l35 -27q3 1 6.5 2.5t6.5 2.5q2 18 4 30.5t4 20.5q2 9 9.5 14.5t16.5 5.5h70q5 0 9.5 -1.5 t7.5 -4.5q4 -3 6.5 -8t3.5 -10l7 -47q3 -1 6 -2.5t6 -2.5l37 28q5 5 15.5 5.5t19.5 -6.5q21 -20 34.5 -34t19.5 -22q2 -2 3.5 -6t1.5 -10q0 -5 -1 -9t-4 -8q-2 -3 -6.5 -8.5t-9.5 -12.5q-4 -4 -6.5 -7.5t-4.5 -6.5q1 -4 3 -7.5t3 -7.5l48 -7q5 -1 9 -3.5t8 -6.5q2 -4 3.5 -8 t1.5 -9v-70q0 -4 -1 -8t-4 -8t-7.5 -6.5t-9.5 -3.5l-49 -8q-1 -3 -2.5 -6.5t-2.5 -6.5q5 -7 12 -15.5t15 -18.5q4 -4 5.5 -8.5t1.5 -9.5t-2 -9.5t-5 -8.5q-4 -5 -12 -14t-20 -20q-17 -17 -25.5 -22t-14.5 -5q-4 0 -8 1.5t-8 3.5l-37 29q-3 -1 -6 -2.5t-6 -2.5 q-3 -18 -5 -30.5t-4 -20.5q-2 -9 -9 -14.5t-17 -5.5v0zM291 -1v-16v16v0v0v0zM172 80l8 -4q6 -3 12.5 -6t13.5 -5l9 -3l10 -64l63 1q2 8 4 21.5t4 31.5l1 10l10 3q6 2 12.5 5t13.5 6l8 5l50 -39q2 2 6.5 5.5t12.5 11.5q10 10 17 18t11 13q-11 12 -19.5 22.5t-13.5 18.5l-6 8 l5 8q3 6 5.5 12.5t5.5 14.5l3 8l64 10l-1 62l-63 10l-3 9q-2 7 -5 14t-6 15l-5 8l6 8q3 4 7 9.5t10 12.5q5 6 8.5 11t5.5 8q-5 6 -15 17t-30 29l-50 -38l-9 5q-6 3 -12.5 5.5t-13.5 5.5l-9 3l-10 64l-62 -1q-2 -8 -4 -21.5t-4 -31.5l-2 -10l-9 -4q-7 -2 -13.5 -4.5 t-12.5 -5.5l-9 -5l-50 38q-2 -1 -6.5 -5t-11.5 -11q-12 -12 -18.5 -19t-9.5 -11q10 -12 18 -22.5t14 -19.5l6 -8l-5 -8q-3 -7 -6 -13.5t-5 -12.5l-3 -10l-63 -9v-63l63 -9l3 -10q2 -7 5 -14t7 -14l4 -8l-5 -8q-3 -4 -7.5 -9.5t-10.5 -13.5q-5 -6 -8.5 -10.5t-5.5 -7.5 q6 -8 17.5 -19.5t28.5 -27.5l50 38v0zM256 128q-20 0 -37 7t-31 21t-21 31t-7 37t7 37t21 31t31 21t37 7t37 -7t31 -21t21 -31t7 -37t-7 -37t-21 -31t-31 -21t-37 -7v0zM256 288q-13 0 -24.5 -4.5t-21.5 -13.5q-9 -10 -13.5 -21.5t-4.5 -24.5q0 -14 4.5 -25t14.5 -21 q19 -19 45.5 -19t45.5 19q9 10 14 21t5 25q0 13 -5 24.5t-14 21.5q-10 9 -21 13.5t-25 4.5v0z" />
<glyph unicode="&#xe69a;" d="M465 363h-65l-32 91h-224l-32 -91h-65l-47 -46v-288q0 -22 15.5 -37.5t37.5 -15.5h406q22 0 37.5 15.5t15.5 37.5v288l-47 46v0zM166 423h180l21 -60h-222l21 60v0zM481 29q0 -9 -6.5 -15.5t-15.5 -6.5h-406q-9 0 -15.5 6.5t-6.5 15.5v188h168v-105h114v105h168v-188v0z M231 144v73h50v-73h-50v0zM481 248h-450v56l29 28h392l29 -28v-56v0z" />
<glyph unicode="&#xe69c;" d="M408 90v390h-32v-390h-67l83 -122l82 122h-66zM120 480l-82 -122h66v-390h32v390h67z" />
<glyph unicode="&#xe69e;" d="M465 152l-133 57q8 11 13.5 23.5t10.5 24.5q18 10 27 24t9 29q0 9 -3.5 18t-10.5 17v4v4q0 55 -34.5 91t-87.5 36t-87.5 -36t-34.5 -91v-4v-4q-7 -8 -10.5 -17t-3.5 -18q0 -15 9 -29t27 -24q5 -13 11 -26t14 -24l-133 -54q-22 -8 -35 -27t-13 -42v-116h512v116 q0 23 -13 41.5t-34 26.5v0zM180 278l-4 3q-12 6 -18.5 14t-6.5 15q0 5 2.5 9.5t7.5 9.5l5 5l-1 7v6v6q0 42 25.5 69t65.5 27t65.5 -27t25.5 -69v-6v-6l-1 -7l5 -5q5 -5 7.5 -9.5t2.5 -9.5q0 -7 -6.5 -15t-18.5 -14l-4 -3l-2 -5q-15 -34 -29.5 -53.5t-44.5 -19.5t-44.5 19.5 t-29.5 53.5l-2 5v0zM481 -1h-180l-30 108l26 40l-11 -5t-29 -5t-30.5 5l-12.5 5l26 -40l-30 -108h-179v85q0 13 7.5 24t20.5 15l146 60q10 -7 22.5 -11t28.5 -4q17 0 30 4.5t23 12.5l144 -62q13 -4 20.5 -15t7.5 -24v-85v0z" />
<glyph unicode="&#xe6a0;" d="M243 59q-34 3 -64 18t-52 41q-17 20 -27 44t-13 50h53l-70 103l-70 -103h55q3 -32 15 -61.5t33 -53.5q26 -30 61.5 -48.5t76.5 -21.5h8h8q36 0 70 12.5t61 36.5l-20 24q-26 -22 -58.5 -32.5t-66.5 -8.5v0zM458 234q0 35 -12.5 68t-35.5 60q-27 30 -62.5 48t-75.5 22 q-41 3 -79 -9.5t-69 -39.5l21 -24q26 22 58 32.5t66 8.5q34 -3 64 -18t53 -41q19 -23 29.5 -50.5t10.5 -56.5h-54l70 -103l70 103h-54v0z" />
<glyph unicode="&#xe6a2;" d="M186 90h-22v142v17.5t1 16.5q-1 -1 -3 -2.5t-3 -3.5q-2 -1 -10.5 -8t-22.5 -19l-12 16l53 41h19v-200v0zM325 212q16 0 28.5 -4t21.5 -12t13.5 -18.5t4.5 -24.5q0 -15 -5 -27.5t-15 -20.5q-10 -9 -23.5 -13.5t-30.5 -4.5t-30 2.5t-22 8.5v22q5 -3 11 -5.5t13 -4.5t14 -3 t14 -1q12 0 21.5 3t15.5 9q7 6 10.5 14t3.5 19q0 21 -13 31.5t-39 10.5q-6 0 -15 -1t-20 -3l-11 7l7 94h100v-21h-80l-5 -60q7 1 15 2t16 1v0zM458 -32h-404q-23 0 -38.5 15.5t-15.5 37.5v406q0 22 15.5 37.5t38.5 15.5h404q23 0 38.5 -15.5t15.5 -37.5v-406 q0 -22 -15.5 -37.5t-38.5 -15.5v0zM54 449q-10 0 -16.5 -6.5t-6.5 -15.5v-406q0 -9 6.5 -15.5t16.5 -6.5h404q10 0 16.5 6.5t6.5 15.5v406q0 9 -6.5 15.5t-16.5 6.5h-404v0zM216 390q0 -13 -8.5 -22t-21.5 -9q-12 0 -21 9t-9 22q0 12 9 21t21 9q13 0 21.5 -9t8.5 -21v0z M356 390q0 -13 -9 -22t-21 -9q-13 0 -21.5 9t-8.5 22q0 12 8.5 21t21.5 9q12 0 21 -9t9 -21v0z" />
<glyph unicode="&#xe6a4;" d="M256 -32q-53 0 -99.5 20t-81.5 55t-55 81.5t-20 99.5t20 99.5t55 81.5t81.5 55t99.5 20t99.5 -20t81.5 -55t55 -81.5t20 -99.5t-20 -99.5t-55 -81.5t-81.5 -55t-99.5 -20v0zM256 449q-47 0 -87.5 -18t-71.5 -48.5t-48.5 -71.5t-17.5 -87t17.5 -87t48.5 -71.5t71.5 -48.5 t87.5 -18q46 0 87 18t71.5 48.5t48.5 71.5t18 87t-18 87t-48.5 71.5t-71.5 48.5t-87 18v0zM312 182h-200v31h169v167h31v-198z" />
<glyph unicode="&#xe6a6;" d="M360 480h-318v-512h428v388l-110 124v0zM439 -1h-366v450h273l93 -105v-345v0zM103 223q0 -63 45 -108t108 -45t108 45t45 108t-45 108t-108 45t-108 -45t-45 -108v0zM377 223q0 -50 -35.5 -86t-85.5 -36t-85.5 36t-35.5 86t35.5 85.5t85.5 35.5t85.5 -35.5t35.5 -85.5v0 zM174 192h121v120h-32v-89h-89v-31z" />
<glyph unicode="&#xe6a8;" d="M348 99q-7 1 -20 5l-13 4q-10 2 -16.5 7t-6.5 15v1v6t1 5q5 8 9 17.5t8 19.5q9 6 14 13t5 16q0 4 -1 8t-4 7v23q0 28 -20 48t-48 20t-48 -20t-20 -48v-23q-3 -3 -4 -7t-1 -8q0 -9 5 -16t14 -13q4 -10 8 -19.5t9 -17.5q1 -2 1 -5v-6v-1q0 -10 -6.5 -15t-16.5 -7l-13 -4 t-20 -5q-19 -4 -31.5 -21t-12.5 -37h272q0 20 -12.5 37t-31.5 21v0zM462 378h-252q-6 17 -11.5 26.5l-5.5 9.5q-6 9 -17 15t-23 6h-103q-25 0 -37.5 -28t-12.5 -45v-350q0 -18 14.5 -31t35.5 -13h412q21 0 35.5 14.5t14.5 35.5v310q0 21 -14.5 35.5t-35.5 14.5v0zM481 18 q0 -8 -5.5 -13.5t-13.5 -5.5h-412q-8 0 -13.5 4t-5.5 9v350q0 12 7 26.5t12 15.5h103q4 0 8.5 -2t5.5 -6q2 -3 11.5 -26t20.5 -23h263q8 0 13.5 -5.5t5.5 -13.5v-310v0z" />
<glyph unicode="&#xe6aa;" d="M166 272v91q0 35 25.5 60.5t60.5 25.5q36 0 61 -25.5t25 -60.5h32q0 48 -34.5 82.5t-83.5 34.5q-48 0 -82.5 -34.5t-34.5 -82.5v-91h-80v-304h394v304h-283v0zM418 -1h-332v241h332v-241v0z" />
<glyph unicode="&#xe6ac;" d="M487 205q-13 -17 -36 -42t-53.5 -48.5t-66.5 -40.5t-75 -17t-75 17t-66 40t-53 48t-36 41l-25 -19q18 -22 44 -49.5t59 -51.5t71.5 -40.5t80.5 -16.5q43 0 81.5 16.5t71.5 41t59 52t44 50.5l-25 19v0zM256 391q74 0 134.5 -51.5t92.5 -91.5l25 20q-18 21 -43.5 48 t-58 50.5t-70.5 39.5t-80 16q-43 0 -81.5 -16.5t-71.5 -41t-59 -52t-44 -50.5l25 -19q13 17 36 42t53.5 48.5t66.5 40.5t75 17v0zM160 224q0 -40 28 -68t68 -28t68 28t28 68t-28 68t-68 28t-68 -28t-28 -68v0zM321 224q0 -27 -19 -46t-46 -19t-46 19t-19 46t19 46t46 19 t46 -19t19 -46v0z" />
</font>
</defs>
</svg>
